<svg width="24" height="24" viewBox="0 0 24 24" fill="none" xmlns="http://www.w3.org/2000/svg">
    <path fill-rule="evenodd" clip-rule="evenodd" d="M12 22C11.4477 22 11 21.5523 11 21L11 10.4631L7.71699 13.8399C7.33201 14.2359 6.69891 14.2448 6.30292 13.8599C5.90694 13.4749 5.89802 12.8418 6.283 12.4458L11.283 7.30292C11.4713 7.10926 11.7299 7 12 7C12.2701 7 12.5287 7.10926 12.717 7.30292L17.717 12.4458C18.102 12.8418 18.0931 13.4749 17.6971 13.8599C17.3011 14.2448 16.668 14.2359 16.283 13.8399L13 10.4631L13 21C13 21.5523 12.5523 22 12 22Z" fill="#000"></path>
    <path d="M21 4L3 4C2.44771 4 2 3.55228 2 3C2 2.44771 2.44772 2 3 2L21 2C21.5523 2 22 2.44772 22 3C22 3.55229 21.5523 4 21 4Z" fill="#000"></path>
</svg>