<svg width="24" height="24" viewBox="0 0 24 24" fill="none" xmlns="http://www.w3.org/2000/svg">
    <path d="M21.6023 2.39774C21.0719 1.86742 20.2121 1.86742 19.6818 2.39774L12 10.0795L4.31819 2.39774C3.78787 1.86742 2.92806 1.86742 2.39774 2.39774C1.86742 2.92806 1.86742 3.78787 2.39774 4.31819L10.0795 12L2.39774 19.6818C1.86742 20.2121 1.86742 21.0719 2.39774 21.6023C2.92806 22.1326 3.78787 22.1326 4.31819 21.6023L12 13.9205L19.6818 21.6023C20.2121 22.1326 21.0719 22.1326 21.6023 21.6023C22.1326 21.0719 22.1326 20.2121 21.6023 19.6818L13.9205 12L21.6023 4.31819C22.1326 3.78787 22.1326 2.92806 21.6023 2.39774Z" fill="#000"></path>
</svg>