<svg width="24" height="24" viewBox="0 0 24 24" fill="none" xmlns="http://www.w3.org/2000/svg">
    <path fill-rule="evenodd" clip-rule="evenodd" d="M4 10.7143C4 7.00609 7.00609 4 10.7143 4C14.4225 4 17.4286 7.00609 17.4286 10.7143C17.4286 14.4225 14.4225 17.4286 10.7143 17.4286C7.00609 17.4286 4 14.4225 4 10.7143ZM10.7143 2C5.90152 2 2 5.90152 2 10.7143C2 15.5271 5.90152 19.4286 10.7143 19.4286C12.7604 19.4286 14.6417 18.7234 16.1286 17.5429L20.2928 21.7071C20.6834 22.0976 21.3165 22.0976 21.7071 21.7071C22.0976 21.3166 22.0976 20.6834 21.7071 20.2929L17.5428 16.1287C18.7234 14.6418 19.4286 12.7604 19.4286 10.7143C19.4286 5.90152 15.5271 2 10.7143 2Z" fill="#000"></path>
</svg>