<svg width="1215" height="167" viewBox="0 0 1215 167" fill="none" xmlns="http://www.w3.org/2000/svg">
<path d="M2 7H1V8V155.2V156.2H2H31H32V155.2V98.4H85.6H86.6V97.4V69.4V68.4H85.6H32V37H94H95V36V8V7H94H2Z" fill="black" stroke="black" stroke-width="2"/>
<path d="M221.842 154.461L188.213 101.963C192.577 99.3237 196.247 96.1777 199.212 92.5216C203.42 87.4959 206.413 81.9185 208.182 75.7952C210.072 69.715 211.019 63.6265 211.019 57.5326C211.019 49.8327 209.737 42.9076 207.149 36.7747C204.563 30.5143 200.749 25.1968 195.711 20.8347C190.8 16.3338 184.682 12.9427 177.386 10.6438C170.08 8.2085 161.787 7 152.521 7H108H107V8V155V156H108H136.949H137.949V155V109.264H155.69L186.427 155.553L186.723 156H187.26H221H222.828L221.842 154.461ZM174.486 71.9049L174.475 71.9201L174.464 71.9357C172.978 74.0419 170.853 75.806 168.046 77.2103C165.295 78.5859 161.8 79.3016 157.512 79.3016H137.949V36.962H157.712C162.672 36.962 166.465 37.8133 169.182 39.4193L169.19 39.4242L169.199 39.4289C172.136 41.09 174.255 43.1036 175.613 45.4506C177.024 47.8889 177.908 50.3029 178.286 52.6953L178.291 52.726L178.298 52.7563C178.822 55.1154 179.072 57.0342 179.072 58.5313C179.072 60.5381 178.696 62.7654 177.921 65.2207L177.916 65.2374L177.911 65.2542C177.284 67.5114 176.15 69.7282 174.486 71.9049Z" fill="black" stroke="black" stroke-width="2"/>
<path d="M470.13 161.742L470.415 162H470.8H471.6H472.6V161V7.8V6.8H471.6H442.4H441.393L441.4 7.80676L441.984 94.2236L340.877 1.26385L340.59 1H340.2H339H338V2V155V156H339H368.4H369.407L369.4 154.993L368.835 70.2501L470.13 161.742Z" fill="black" stroke="black" stroke-width="2"/>
<path d="M518.444 60.4366L518.449 60.3829V60.3288V8V7H517.449H488H487V8V155V156H488H517.449H518.449V155V99.8906L524.539 93.8197L569.328 155.587L569.628 156H570.138H607H609.006L607.799 154.398L547.199 73.9756L607.534 8.67865L609.085 7H606.8H569.136H568.687L568.389 7.33588L520.308 61.4622L520.288 61.4842L520.27 61.5074L518.018 64.3655L518.444 60.4366Z" fill="black" stroke="black" stroke-width="2"/>
<path d="M927 7H926V8V155V156H927H956H957V155V8V7H956H927Z" fill="black" stroke="black" stroke-width="2"/>
<path d="M1001.73 7.62409L1001.47 7H1000.8H966H964.473L965.083 8.39994L1032.28 162.4L1033.2 164.5L1034.12 162.4L1101.32 8.39994L1101.93 7H1100.4H1066H1065.31L1065.07 7.64469L1034.43 88.2403L1001.73 7.62409Z" fill="black" stroke="black" stroke-width="2"/>
<path d="M1110 7H1109V8V155V156H1110H1213H1214V155V127.038V126.038H1213H1139.94V96.2812H1202.02H1203.02V95.2812V67.3193V66.3193H1202.02H1139.94V36.962H1210.21H1211.21V35.962V8V7H1210.21H1110Z" fill="black" stroke="black" stroke-width="2"/>
<path d="M207.083 154.602L206.476 156H208H236.6H237.267L237.523 155.384L249.259 127.2H296.771L307.87 155.367L308.119 156H308.8H342.4H343.924L343.317 154.602L276.917 1.60189L276.656 1H276H274.4H273.744L273.483 1.60189L207.083 154.602ZM260.252 100.8L273.67 68.576L286.368 100.8H260.252Z" fill="black" stroke="black" stroke-width="2"/>
<path d="M817.081 129.306L817 129.495V129.7V155V156H818H916H917V155V127.038V126.038H916H847.941V8V7H846.941H818H817V8V32.1012V32.3067L817.081 32.4954C823.451 47.3476 826.98 63.7106 826.98 80.9008C826.98 98.091 823.451 114.454 817.081 129.306Z" fill="black" stroke="black" stroke-width="2"/>
<path d="M777.5 156H779.497L778.301 154.401L747.77 113.578L766.929 65.3693L767.474 64H766H739.6H738.915L738.668 64.6383L729.315 88.7423L703.832 54.4431C703.425 53.7652 702.7 52.5796 701.66 50.8898C700.612 49.0544 699.562 47.0865 698.511 44.9857C697.622 42.8176 697.2 40.8934 697.2 39.2C697.2 36.2258 698.124 33.5013 700 31C701.748 28.6689 704.659 27.4 709 27.4C712.341 27.4 715.808 28.6349 719.419 31.2137L719.425 31.2185L719.432 31.2232C723.221 33.8359 727.164 37.3805 731.261 41.8738L732.074 42.7651L732.799 41.8013L747.399 22.4013L747.86 21.7889L747.388 21.1847C743.022 15.5908 737.174 10.8398 729.873 6.919C722.506 2.96266 714.005 1 704.4 1C695.599 1 688.202 2.82803 682.271 6.55142C676.535 10.1029 672.205 14.6299 669.315 20.1352L669.315 20.1351L669.31 20.1437C666.578 25.4711 665.2 30.8932 665.2 36.4C665.2 40.6541 665.955 44.9003 667.458 49.1344L667.458 49.1344L667.461 49.1442C668.947 53.1979 670.707 56.9222 672.743 60.3145L672.747 60.3223L672.752 60.33C674.617 63.3137 676.2 65.7307 677.498 67.5751C677.076 67.7346 676.655 67.8994 676.234 68.0695C669.874 70.5062 664.117 73.8247 658.968 78.0251C653.804 82.2379 649.653 87.2039 646.523 92.9197L646.518 92.9278L646.514 92.936C643.502 98.687 642 104.981 642 111.8C642 120.775 644.247 128.767 648.76 135.743C653.259 142.695 659.325 148.145 666.94 152.088C674.562 156.035 683.055 158 692.4 158C704.393 158 714.201 155.575 721.745 150.639C725.917 147.956 729.508 144.958 732.51 141.64L742.692 155.59L742.992 156H743.5H777.5ZM687.394 90.5191L687.412 90.5114L687.43 90.5029C689.276 89.6239 691.212 89.0497 693.242 88.7797L716.385 119.923C715.588 121.105 714.683 122.236 713.67 123.316L713.659 123.329L713.647 123.341C711.889 125.352 709.613 127.003 706.796 128.285C704.164 129.411 700.714 130 696.4 130C692.273 130 688.489 129.163 685.034 127.499C681.586 125.839 678.862 123.555 676.835 120.649C674.952 117.628 674 114.155 674 110.2C674 107.398 674.507 104.731 675.521 102.191C676.669 99.6461 678.262 97.3523 680.307 95.3071C682.35 93.2646 684.71 91.6695 687.394 90.5191Z" fill="black" stroke="black" stroke-width="2"/>
</svg>
