<svg width="237" height="237" viewBox="0 0 237 237" fill="none" xmlns="http://www.w3.org/2000/svg">
<circle cx="118.5" cy="118.5" r="118.5" fill="white"/>
<path d="M189.5 193H191.497L190.301 191.401L159.77 150.578L178.929 102.369L179.474 101H178H151.6H150.915L150.668 101.638L141.315 125.742L115.832 91.4431C115.425 90.7652 114.7 89.5796 113.66 87.8898C112.612 86.0544 111.562 84.0865 110.511 81.9857C109.622 79.8176 109.2 77.8934 109.2 76.2C109.2 73.2258 110.124 70.5013 112 68C113.748 65.6689 116.659 64.4 121 64.4C124.341 64.4 127.808 65.6349 131.419 68.2137L131.425 68.2185L131.432 68.2232C135.221 70.8359 139.164 74.3805 143.261 78.8738L144.074 79.7651L144.799 78.8013L159.399 59.4013L159.86 58.7889L159.388 58.1847C155.022 52.5908 149.174 47.8398 141.873 43.919C134.506 39.9627 126.005 38 116.4 38C107.599 38 100.202 39.828 94.2709 43.5514C88.5349 47.1029 84.2049 51.6299 81.3146 57.1352L81.3146 57.1351L81.3102 57.1437C78.5782 62.4711 77.2 67.8932 77.2 73.4C77.2 77.6541 77.9552 81.9003 79.4576 86.1344L79.4575 86.1344L79.4611 86.1442C80.9474 90.1979 82.7072 93.9222 84.7425 97.3145L84.7472 97.3223L84.752 97.33C86.6168 100.314 88.1996 102.731 89.4983 104.575C89.0761 104.735 88.6545 104.899 88.2336 105.069C81.8737 107.506 76.1168 110.825 70.9679 115.025C65.8038 119.238 61.653 124.204 58.5229 129.92L58.5185 129.928L58.5142 129.936C55.5017 135.687 54 141.981 54 148.8C54 157.775 56.2467 165.767 60.7604 172.743C65.2586 179.695 71.3252 185.145 78.9401 189.088C86.562 193.035 95.0553 195 104.4 195C116.393 195 126.201 192.575 133.745 187.639C137.917 184.956 141.508 181.958 144.51 178.64L154.692 192.59L154.992 193H155.5H189.5ZM99.3939 127.519L99.4121 127.511L99.4299 127.503C101.276 126.624 103.212 126.05 105.242 125.78L128.385 156.923C127.588 158.105 126.683 159.236 125.67 160.316L125.659 160.329L125.647 160.341C123.889 162.352 121.613 164.003 118.796 165.285C116.164 166.411 112.714 167 108.4 167C104.273 167 100.489 166.163 97.0338 164.499C93.586 162.839 90.8616 160.555 88.835 157.649C86.9523 154.628 86 151.155 86 147.2C86 144.398 86.5075 141.731 87.5207 139.191C88.6687 136.646 90.2619 134.352 92.3071 132.307C94.3496 130.265 96.7097 128.67 99.3939 127.519Z" fill="black" stroke="black" stroke-width="2"/>
</svg>
