<svg width="33" height="32" viewBox="0 0 33 32" fill="none" xmlns="http://www.w3.org/2000/svg">
<rect x="0.5" width="32" height="32" rx="2" fill="#0023F5"/>
<path d="M11.1694 13.5632C9.88155 13.5632 8.83471 14.5155 8.83471 15.6933V20.6301H6.5V15.6933C6.5 13.3443 8.58903 11.4375 11.1694 11.4375C13.7498 11.4375 15.8389 13.3443 15.8389 15.6933V20.6301H13.5041V15.6933C13.5041 14.5155 12.4573 13.5632 11.1694 13.5632Z" fill="white"/>
<path d="M18.173 13.5632C19.4609 13.5632 20.5077 14.5155 20.5077 15.6933V20.6301H22.8424V15.6933C22.8424 13.3443 20.7534 11.4375 18.173 11.4375H17.0056V13.5632H18.173Z" fill="white"/>
<path d="M26.3356 20.6301C26.9787 20.6301 27.5 20.1088 27.5 19.4657C27.5 18.8226 26.9787 18.3013 26.3356 18.3013C25.6925 18.3013 25.1712 18.8226 25.1712 19.4657C25.1712 20.1088 25.6925 20.6301 26.3356 20.6301Z" fill="white"/>
</svg>
