<svg width="822" height="159" viewBox="0 0 822 159" fill="none" xmlns="http://www.w3.org/2000/svg">
<path d="M596.842 154.461L563.213 101.963C567.577 99.3237 571.247 96.1777 574.212 92.5216C578.42 87.4959 581.413 81.9185 583.182 75.7952C585.072 69.715 586.019 63.6265 586.019 57.5326C586.019 49.8327 584.737 42.9076 582.149 36.7747C579.563 30.5143 575.749 25.1968 570.711 20.8347C565.8 16.3338 559.682 12.9427 552.386 10.6438C545.08 8.2085 536.787 7 527.521 7H483H482V8V155V156H483H511.949H512.949V155V109.264H530.69L561.427 155.553L561.723 156H562.26H596H597.828L596.842 154.461ZM549.486 71.9049L549.475 71.9201L549.464 71.9357C547.978 74.0419 545.853 75.806 543.046 77.2103C540.295 78.5859 536.8 79.3016 532.512 79.3016H512.949V36.962H532.712C537.672 36.962 541.465 37.8133 544.182 39.4193L544.19 39.4242L544.199 39.4289C547.136 41.09 549.255 43.1036 550.613 45.4506C552.024 47.8889 552.908 50.3029 553.286 52.6953L553.291 52.726L553.298 52.7563C553.822 55.1154 554.072 57.0342 554.072 58.5313C554.072 60.5381 553.696 62.7654 552.921 65.2207L552.916 65.2374L552.911 65.2542C552.284 67.5114 551.15 69.7282 549.486 71.9049Z" fill="black" stroke="black" stroke-width="2"/>
<path d="M607 7H606V8V155V156H607H710H711V155V127.038V126.038H710H636.944V96.2812H699.021H700.021V95.2812V67.3193V66.3193H699.021H636.944V36.962H707.205H708.205V35.962V8V7H707.205H607Z" fill="black" stroke="black" stroke-width="2"/>
<path d="M720.2 7H719.2V8V36V37H720.2H753.6V155.2V156.2H754.6H783.6H784.6V155.2V37H819.4H820.4V36V8V7H819.4H720.2Z" fill="black" stroke="black" stroke-width="2"/>
<path d="M115.083 154.602L114.476 156H116H144.6H145.267L145.523 155.384L157.259 127.2H204.771L215.87 155.367L216.119 156H216.8H250.4H251.924L251.317 154.602L184.917 1.60189L184.656 1H184H182.4H181.744L181.483 1.60189L115.083 154.602ZM168.252 100.8L181.67 68.576L194.368 100.8H168.252Z" fill="black" stroke="black" stroke-width="2"/>
<path d="M346.083 154.602L345.476 156H347H375.6H376.267L376.523 155.384L388.259 127.2H435.771L446.87 155.367L447.119 156H447.8H481.4H482.924L482.317 154.602L415.917 1.60189L415.656 1H415H413.4H412.744L412.483 1.60189L346.083 154.602ZM399.252 100.8L412.67 68.576L425.368 100.8H399.252Z" fill="black" stroke="black" stroke-width="2"/>
<path d="M337.97 146.421L337.975 146.418C343.043 142.857 347.016 138.266 349.888 132.66C352.912 126.884 354.4 119.918 354.4 111.8C354.4 102.905 351.587 95.2654 345.95 88.939C341.957 84.3618 336.933 80.5635 330.899 77.5358C334.63 74.9915 337.801 71.9439 340.405 68.3933C345.088 62.0574 347.4 54.2385 347.4 45C347.4 32.4501 342.74 22.9186 333.364 16.5745C324.077 10.1571 311.657 7 296.2 7H253H252V8V155.2V156.2H253H302C308.609 156.2 315.02 155.458 321.233 153.973L321.243 153.97L321.252 153.968C327.49 152.34 333.066 149.827 337.97 146.421ZM311.422 62.3717L311.415 62.3809L311.407 62.3903C308.986 65.5382 305.128 67.2 299.6 67.2H283V37H297.6C303.194 37 307.49 38.2362 310.595 40.5962L310.602 40.6019L310.61 40.6074C313.77 42.917 315.4 46.3872 315.4 51.2C315.4 55.3682 314.08 59.0804 311.422 62.3717ZM319.113 102.927L319.124 102.937L319.136 102.947C321.258 104.834 322.4 107.72 322.4 111.8C322.4 115.34 321.457 118.242 319.623 120.57C317.763 122.799 315.201 124.5 311.889 125.649C308.537 126.679 304.777 127.2 300.6 127.2H283V97.2H298.6C302.658 97.2 306.509 97.6581 310.157 98.5702L310.177 98.5751L310.197 98.5793C313.918 99.3491 316.873 100.811 319.113 102.927Z" fill="black" stroke="black" stroke-width="2"/>
<path d="M122.04 143.368L122.629 142.877L122.308 142.181L110.308 116.181L109.722 114.911L108.71 115.877C105.888 118.57 101.733 121.181 96.1878 123.689C90.7482 126.15 84.1628 127.4 76.4 127.4C69.7138 127.4 63.7146 126.286 58.3871 124.078C53.1831 121.866 48.7026 118.748 44.9355 114.722C41.1677 110.563 38.2349 105.616 36.1433 99.8679C34.1854 94.121 33.2 87.7682 33.2 80.8C33.2 74.2486 34.3133 68.2442 36.527 62.7752L36.527 62.7752L36.53 62.7677C38.7544 57.141 41.7576 52.2479 45.5353 48.0778C49.448 43.9057 53.8717 40.7213 58.8084 38.5128L58.8084 38.5129L58.8191 38.508C63.8908 36.1672 69.1481 35 74.6 35C81.6687 35 87.841 36.3738 93.1441 39.09L93.157 39.0966L93.1701 39.1029C98.7347 41.7527 103.135 44.3189 106.395 46.7962L107.426 47.5797L107.923 46.3841L119.323 18.9841L119.646 18.2092L118.938 17.7573C114.053 14.636 107.776 11.739 100.131 9.0564C92.4038 6.34508 83.5549 5 73.6 5C62.8147 5 52.9466 6.88792 44.0095 10.6794C35.0849 14.4656 27.3691 19.8112 20.8718 26.7146L20.8718 26.7146L20.8646 26.7223C14.5033 33.6251 9.57102 41.806 6.06258 51.2518L6.0625 51.2518L6.05826 51.2637C2.68171 60.718 1 71.1001 1 82.4C1 92.5134 2.68601 102.034 6.06484 110.954C9.44266 119.872 14.3098 127.782 20.6646 134.678L20.6718 134.685C27.1691 141.589 35.0148 147.064 44.1964 151.115L44.2044 151.118L44.2125 151.122C53.5453 155.044 64.0718 157.131 75.777 157.4L75.7825 157.4C83.4626 157.535 90.4934 156.727 96.8666 154.964C103.178 153.218 108.516 151.195 112.864 148.886C117.261 146.62 120.348 144.778 122.04 143.368Z" fill="black" stroke="black" stroke-width="2"/>
</svg>
