<svg width="257" height="256" viewBox="0 0 257 256" fill="none" xmlns="http://www.w3.org/2000/svg">
<rect x="0.5" width="256" height="256" rx="16" fill="#0023F5"/>
<path d="M85.8554 108.505C75.5524 108.505 67.1777 116.124 67.1777 125.547V165.041H48.5V125.547C48.5 106.754 65.2122 91.5 85.8554 91.5C106.499 91.5 123.211 106.754 123.211 125.547V165.041H104.533V125.547C104.533 116.124 96.1585 108.505 85.8554 108.505Z" fill="white"/>
<path d="M141.884 108.505C152.187 108.505 160.562 116.124 160.562 125.547V165.041H179.239V125.547C179.239 106.754 162.527 91.5 141.884 91.5H132.545V108.505H141.884Z" fill="white"/>
<path d="M207.185 165.041C212.329 165.041 216.5 160.87 216.5 155.726C216.5 150.581 212.329 146.411 207.185 146.411C202.04 146.411 197.87 150.581 197.87 155.726C197.87 160.87 202.04 165.041 207.185 165.041Z" fill="white"/>
</svg>
