<svg width="514" height="225" viewBox="0 0 514 225" fill="none" xmlns="http://www.w3.org/2000/svg">
<path d="M114.29 52.0282C82.7675 52.0282 57.1449 75.3367 57.1449 104.166V225H0V104.166C0 46.6714 51.1314 0 114.29 0C177.448 0 228.58 46.6714 228.58 104.166V225H171.435V104.166C171.435 75.3367 145.812 52.0282 114.29 52.0282Z" fill="white"/>
<path d="M285.71 52.0282C317.233 52.0282 342.855 75.3367 342.855 104.166V225H400V104.166C400 46.6714 348.869 0 285.71 0H257.138V52.0282H285.71Z" fill="white"/>
<path d="M485.5 225C501.24 225 514 212.24 514 196.5C514 180.76 501.24 168 485.5 168C469.76 168 457 180.76 457 196.5C457 212.24 469.76 225 485.5 225Z" fill="white"/>
</svg>
