<svg width="594" height="435" viewBox="0 0 594 435" fill="none" xmlns="http://www.w3.org/2000/svg">
<path d="M365.499 365.423H353.528V350.301H365.499V343.244C365.499 335.935 367.726 330.348 372.178 326.483C376.715 322.535 382.512 320.561 389.569 320.561C396.904 320.561 402.64 321.99 406.776 324.849L399.893 338.959C398.071 336.51 394.781 336.313 391.753 336.313C387.721 336.313 384.402 338.973 384.402 343.244V350.301H399.524V365.423H384.402V410.033H365.499V365.423Z" fill="#252525"/>
<path d="M427.137 321.82H408.234V410.033H427.137V321.82Z" fill="#252525"/>
<path d="M19.7322 356.475V350.3H0.829529V410.033H19.7322V374.118C19.7322 371.093 20.4043 368.783 21.7485 367.187C23.1767 365.507 25.0249 364.666 27.2932 364.666C29.6456 364.666 31.4938 365.339 32.838 366.683C34.1822 368.027 34.8543 370.085 34.8543 372.858V410.033H53.757V374.118C53.757 370.925 54.3871 368.447 55.6472 366.683C56.9074 364.918 58.7977 364.036 61.318 364.036C63.5863 364.036 65.3926 364.834 66.7368 366.431C68.165 367.943 68.8791 370.085 68.8791 372.858V410.033H87.7817V369.707C87.7817 363.322 85.8495 358.282 81.9849 354.585C78.1204 350.888 72.9117 349.04 66.3587 349.04C58.7137 349.04 52.8328 352.359 48.7163 358.996C47.4561 355.887 45.4818 353.451 42.7934 351.687C40.105 349.922 37.0386 349.04 33.5941 349.04C27.5453 349.04 22.9246 351.519 19.7322 356.475Z" fill="#252525"/>
<path fill-rule="evenodd" clip-rule="evenodd" d="M109.414 407.386C114.287 409.991 119.748 411.293 125.797 411.293C131.846 411.293 137.264 409.991 142.053 407.386C146.926 404.698 150.706 401.002 153.395 396.297C156.167 391.508 157.553 386.131 157.553 380.167C157.553 374.202 156.167 368.867 153.395 364.162C150.706 359.374 146.926 355.677 142.053 353.073C137.264 350.384 131.846 349.04 125.797 349.04C119.748 349.04 114.287 350.384 109.414 353.073C104.626 355.677 100.845 359.374 98.0729 364.162C95.3845 368.867 94.0403 374.202 94.0403 380.167C94.0403 386.131 95.3845 391.508 98.0729 396.297C100.845 401.002 104.626 404.698 109.414 407.386ZM135.374 390.5C132.854 393.02 129.661 394.281 125.797 394.281C121.932 394.281 118.698 393.02 116.093 390.5C113.573 387.896 112.313 384.451 112.313 380.167C112.313 375.882 113.573 372.48 116.093 369.959C118.698 367.355 121.932 366.053 125.797 366.053C129.661 366.053 132.854 367.355 135.374 369.959C137.978 372.48 139.281 375.882 139.281 380.167C139.281 384.451 137.978 387.896 135.374 390.5Z" fill="#252525"/>
<path d="M163.899 410.033V350.3H182.802V357.357C184.65 354.669 187.129 352.611 190.237 351.183C193.429 349.754 196.832 349.04 200.444 349.04C207.249 349.04 212.626 350.973 216.575 354.837C220.523 358.702 222.497 364.078 222.497 370.967V410.033H203.595V375.378C203.595 371.933 202.671 369.203 200.822 367.187C199.058 365.086 196.622 364.036 193.513 364.036C190.237 364.036 187.633 365.17 185.7 367.439C183.768 369.707 182.802 372.984 182.802 377.268V410.033H163.899Z" fill="#252525"/>
<path fill-rule="evenodd" clip-rule="evenodd" d="M268.879 393.02C267.115 394.365 264.594 395.037 261.318 395.037C257.537 395.037 254.387 394.029 251.867 392.012C249.43 389.996 248.044 387.392 247.708 384.199H286.773C287.278 381.511 287.53 378.948 287.53 376.512C287.53 368.195 284.967 361.558 279.842 356.601C274.802 351.561 267.913 349.04 259.176 349.04C253.295 349.04 248.044 350.426 243.423 353.199C238.803 355.887 235.19 359.584 232.586 364.288C230.065 368.993 228.805 374.16 228.805 379.789C228.805 386.005 230.191 391.508 232.964 396.297C235.82 401.002 239.685 404.698 244.558 407.386C249.43 409.991 254.933 411.293 261.066 411.293C268.039 411.293 273.92 409.697 278.708 406.504C283.581 403.312 287.025 398.985 289.042 393.524L273.038 387.224C272.113 389.66 270.727 391.592 268.879 393.02ZM252.245 365.801C254.429 364.456 256.739 363.784 259.176 363.784C262.368 363.784 264.846 364.54 266.611 366.053C268.459 367.481 269.383 369.329 269.383 371.597H247.708C248.632 369.077 250.144 367.145 252.245 365.801Z" fill="#252525"/>
<path d="M353.395 350.3L312.188 434.984H293.285L309.289 402.094L285.094 350.3H304.627L319.119 381.931L334.493 350.3H353.395Z" fill="#252525"/>
<path fill-rule="evenodd" clip-rule="evenodd" d="M465.147 411.293C459.098 411.293 453.637 409.991 448.765 407.386C443.976 404.698 440.195 401.002 437.423 396.297C434.735 391.508 433.39 386.131 433.39 380.167C433.39 374.202 434.735 368.867 437.423 364.162C440.195 359.374 443.976 355.677 448.765 353.073C453.637 350.384 459.098 349.04 465.147 349.04C471.196 349.04 476.615 350.384 481.403 353.073C486.276 355.677 490.056 359.374 492.745 364.162C495.517 368.867 496.903 374.202 496.903 380.167C496.903 386.131 495.517 391.508 492.745 396.297C490.056 401.002 486.276 404.698 481.403 407.386C476.615 409.991 471.196 411.293 465.147 411.293ZM465.147 394.281C469.011 394.281 472.204 393.02 474.724 390.5C477.329 387.896 478.631 384.451 478.631 380.167C478.631 375.882 477.329 372.48 474.724 369.959C472.204 367.355 469.011 366.053 465.147 366.053C461.282 366.053 458.048 367.355 455.444 369.959C452.923 372.48 451.663 375.882 451.663 380.167C451.663 384.451 452.923 387.896 455.444 390.5C458.048 393.02 461.282 394.281 465.147 394.281Z" fill="#252525"/>
<path d="M534.142 350.3L525.32 393.02L515.869 350.3H496.966L512.089 410.033H537.922L545.483 374.496L553.044 410.033H578.878L594 350.3H575.097L565.646 393.02L556.825 350.3H534.142Z" fill="#252525"/>
<path d="M154.145 104.166C154.145 75.3367 179.768 52.0282 211.29 52.0282C242.812 52.0282 268.435 75.3367 268.435 104.166V225H325.58V104.166C325.58 46.6714 274.448 0 211.29 0C148.131 0 97 46.6714 97 104.166V225H154.145V104.166Z" fill="#252525"/>
<path d="M439.855 104.166C439.855 75.3367 414.233 52.0282 382.71 52.0282H354.138V0H382.71C445.869 0 497 46.6714 497 104.166V225H439.855V104.166Z" fill="#252525"/>
</svg>
