<svg width="24" height="24" viewBox="0 0 24 24" fill="none" xmlns="http://www.w3.org/2000/svg">
    <path fill-rule="evenodd" clip-rule="evenodd" d="M2.3187 10.4952H4.80687C5.49891 6.24249 9.05914 3 13.3434 3C18.1237 3 22 7.03233 22 12C22 16.9677 18.1237 21 13.3434 21C11.1633 21 9.17115 20.1603 7.65105 18.7801L9.44317 16.4148C10.4712 17.3958 11.8393 17.9986 13.3394 17.9986C16.5236 17.9986 19.1118 15.309 19.1118 12C19.1118 8.69099 16.5236 6.00139 13.3394 6.00139C10.6553 6.00139 8.4031 7.91363 7.75906 10.4952H10.2792C10.5952 10.4952 10.6913 10.7072 10.4912 10.9607L6.65899 15.8619C6.45897 16.1196 6.13495 16.1196 5.93094 15.8619L2.09869 10.9607C1.90667 10.7072 2.00268 10.4952 2.3187 10.4952Z" fill="#000"></path>
</svg>