<svg width="56" height="56" viewBox="0 0 56 56" fill="none" xmlns="http://www.w3.org/2000/svg">
<circle cx="28" cy="28" r="28" fill="white"/>
<circle cx="31.5" cy="41.5" r="5.5" fill="black"/>
<path d="M29.443 33.1331C28.3381 33.6789 20.7103 24.4998 18.5799 20.1875C16.2718 15.5154 17.2623 13.4715 19.2457 12.4917C21.2291 11.5118 23.4542 11.9671 25.7624 16.6392C27.9166 21 30.3576 32.6812 29.443 33.1331Z" fill="black"/>
<path d="M23.4004 37.7277C23 38.7408 12.7618 37.4401 8.17635 35.6277C3.76918 33.8858 3.18995 31.9031 3.9295 30.032C4.66904 28.1609 6.4473 27.1099 10.8545 28.8519C15.0238 30.4998 23.8008 36.7147 23.4004 37.7277Z" fill="black"/>
<path d="M37.0342 32.0575C36.2421 31.7488 37.0364 21.2633 38.8469 16.6181C40.581 12.1692 42.6791 11.6163 44.6952 12.4021C46.7113 13.1879 47.8819 15.0149 46.1479 19.4638C44.7308 23.0995 37.8263 32.3663 37.0342 32.0575Z" fill="black"/>
</svg>
