<svg width="218" height="82" viewBox="0 0 218 82" fill="none" xmlns="http://www.w3.org/2000/svg">
<mask id="path-1-outside-1_827_2" maskUnits="userSpaceOnUse" x="1" y="26" width="200" height="52" fill="black">
<rect fill="white" x="1" y="26" width="200" height="52"/>
<path d="M31.8182 50.3182L24.3182 51.1364C24.1061 50.3788 23.7348 49.6667 23.2045 49C22.6894 48.3333 21.9924 47.7955 21.1136 47.3864C20.2348 46.9773 19.1591 46.7727 17.8864 46.7727C16.1742 46.7727 14.7348 47.1439 13.5682 47.8864C12.4167 48.6288 11.8485 49.5909 11.8636 50.7727C11.8485 51.7879 12.2197 52.6136 12.9773 53.25C13.75 53.8864 15.0227 54.4091 16.7955 54.8182L22.75 56.0909C26.053 56.803 28.5076 57.9318 30.1136 59.4773C31.7348 61.0227 32.553 63.0455 32.5682 65.5455C32.553 67.7424 31.9091 69.6818 30.6364 71.3636C29.3788 73.0303 27.6288 74.3333 25.3864 75.2727C23.1439 76.2121 20.5682 76.6818 17.6591 76.6818C13.3864 76.6818 9.94697 75.7879 7.34091 74C4.73485 72.197 3.18182 69.6894 2.68182 66.4773L10.7045 65.7045C11.0682 67.2803 11.8409 68.4697 13.0227 69.2727C14.2045 70.0758 15.7424 70.4773 17.6364 70.4773C19.5909 70.4773 21.1591 70.0758 22.3409 69.2727C23.5379 68.4697 24.1364 67.4773 24.1364 66.2955C24.1364 65.2955 23.75 64.4697 22.9773 63.8182C22.2197 63.1667 21.0379 62.6667 19.4318 62.3182L13.4773 61.0682C10.1288 60.3712 7.65152 59.197 6.04545 57.5455C4.43939 55.8788 3.64394 53.7727 3.65909 51.2273C3.64394 49.0758 4.22727 47.2121 5.40909 45.6364C6.60606 44.0455 8.26515 42.8182 10.3864 41.9545C12.5227 41.0758 14.9848 40.6364 17.7727 40.6364C21.8636 40.6364 25.0833 41.5076 27.4318 43.25C29.7955 44.9924 31.2576 47.3485 31.8182 50.3182ZM41.4368 76L31.5732 41.0909H39.9595L46.0959 65.6364H46.4141L52.6868 41.0909H60.9823L67.255 65.5H67.5959L73.6414 41.0909H82.0505L72.1641 76H63.5959L57.0505 52.4091H56.5732L50.0277 76H41.4368ZM82.6748 76V41.0909H90.902V76H82.6748ZM86.8111 36.1364C85.5081 36.1364 84.3869 35.7045 83.4475 34.8409C82.5081 33.9621 82.0384 32.9091 82.0384 31.6818C82.0384 30.4394 82.5081 29.3864 83.4475 28.5227C84.3869 27.6439 85.5081 27.2045 86.8111 27.2045C88.1293 27.2045 89.2505 27.6439 90.1748 28.5227C91.1142 29.3864 91.5839 30.4394 91.5839 31.6818C91.5839 32.9091 91.1142 33.9621 90.1748 34.8409C89.2505 35.7045 88.1293 36.1364 86.8111 36.1364ZM111.924 41.0909V47.4545H91.2877V41.0909H111.924ZM96.4468 76V37.7955C96.4468 35.447 96.9317 33.4924 97.9014 31.9318C98.8862 30.3712 100.204 29.2045 101.856 28.4318C103.507 27.6591 105.341 27.2727 107.356 27.2727C108.78 27.2727 110.045 27.3864 111.151 27.6136C112.257 27.8409 113.076 28.0455 113.606 28.2273L111.97 34.5909C111.621 34.4848 111.182 34.3788 110.651 34.2727C110.121 34.1515 109.53 34.0909 108.879 34.0909C107.348 34.0909 106.265 34.4621 105.629 35.2045C105.007 35.9318 104.697 36.9773 104.697 38.3409V76H96.4468ZM124.889 76.6136C122.147 76.6136 119.692 75.9091 117.526 74.5C115.359 73.0909 113.647 71.0455 112.389 68.3636C111.132 65.6818 110.503 62.4242 110.503 58.5909C110.503 54.7121 111.139 51.4394 112.412 48.7727C113.7 46.0909 115.435 44.0682 117.617 42.7045C119.798 41.3258 122.23 40.6364 124.912 40.6364C126.958 40.6364 128.639 40.9848 129.958 41.6818C131.276 42.3636 132.321 43.1894 133.094 44.1591C133.867 45.1136 134.465 46.0152 134.889 46.8636H135.23V29.4545H143.48V76H135.389V70.5H134.889C134.465 71.3485 133.851 72.25 133.048 73.2045C132.245 74.1439 131.185 74.947 129.867 75.6136C128.548 76.2803 126.889 76.6136 124.889 76.6136ZM127.185 69.8636C128.927 69.8636 130.412 69.3939 131.639 68.4545C132.867 67.5 133.798 66.1742 134.435 64.4773C135.071 62.7803 135.389 60.803 135.389 58.5455C135.389 56.2879 135.071 54.3258 134.435 52.6591C133.814 50.9924 132.889 49.697 131.662 48.7727C130.45 47.8485 128.958 47.3864 127.185 47.3864C125.351 47.3864 123.821 47.8636 122.594 48.8182C121.367 49.7727 120.442 51.0909 119.821 52.7727C119.2 54.4545 118.889 56.3788 118.889 58.5455C118.889 60.7273 119.2 62.6742 119.821 64.3864C120.458 66.0833 121.389 67.4242 122.617 68.4091C123.859 69.3788 125.382 69.8636 127.185 69.8636ZM162.582 76.6818C159.082 76.6818 156.059 75.9545 153.514 74.5C150.983 73.0303 149.036 70.9545 147.673 68.2727C146.309 65.5758 145.627 62.4015 145.627 58.75C145.627 55.1591 146.309 52.0076 147.673 49.2955C149.052 46.5682 150.976 44.447 153.445 42.9318C155.915 41.4015 158.817 40.6364 162.15 40.6364C164.302 40.6364 166.332 40.9848 168.241 41.6818C170.165 42.3636 171.862 43.4242 173.332 44.8636C174.817 46.303 175.983 48.1364 176.832 50.3636C177.68 52.5758 178.105 55.2121 178.105 58.2727V60.7955H149.491V55.25H170.218C170.203 53.6742 169.862 52.2727 169.195 51.0455C168.529 49.803 167.597 48.8258 166.4 48.1136C165.218 47.4015 163.839 47.0455 162.264 47.0455C160.582 47.0455 159.105 47.4545 157.832 48.2727C156.559 49.0758 155.567 50.1364 154.855 51.4545C154.158 52.7576 153.802 54.1894 153.786 55.75V60.5909C153.786 62.6212 154.158 64.3636 154.9 65.8182C155.642 67.2576 156.68 68.3636 158.014 69.1364C159.347 69.8939 160.908 70.2727 162.695 70.2727C163.892 70.2727 164.976 70.1061 165.945 69.7727C166.915 69.4242 167.756 68.9167 168.468 68.25C169.18 67.5833 169.718 66.7576 170.082 65.7727L177.764 66.6364C177.279 68.6667 176.355 70.4394 174.991 71.9545C173.642 73.4545 171.915 74.6212 169.809 75.4545C167.703 76.2727 165.294 76.6818 162.582 76.6818ZM179.945 76V41.0909H187.922V46.9091H188.286C188.922 44.8939 190.013 43.3409 191.558 42.25C193.119 41.1439 194.899 40.5909 196.899 40.5909C197.354 40.5909 197.861 40.6136 198.422 40.6591C198.998 40.6894 199.475 40.7424 199.854 40.8182V48.3864C199.505 48.2652 198.952 48.1591 198.195 48.0682C197.452 47.9621 196.733 47.9091 196.036 47.9091C194.536 47.9091 193.187 48.2348 191.99 48.8864C190.808 49.5227 189.877 50.4091 189.195 51.5455C188.513 52.6818 188.172 53.9924 188.172 55.4773V76H179.945Z"/>
</mask>
<path d="M31.8182 50.3182L24.3182 51.1364C24.1061 50.3788 23.7348 49.6667 23.2045 49C22.6894 48.3333 21.9924 47.7955 21.1136 47.3864C20.2348 46.9773 19.1591 46.7727 17.8864 46.7727C16.1742 46.7727 14.7348 47.1439 13.5682 47.8864C12.4167 48.6288 11.8485 49.5909 11.8636 50.7727C11.8485 51.7879 12.2197 52.6136 12.9773 53.25C13.75 53.8864 15.0227 54.4091 16.7955 54.8182L22.75 56.0909C26.053 56.803 28.5076 57.9318 30.1136 59.4773C31.7348 61.0227 32.553 63.0455 32.5682 65.5455C32.553 67.7424 31.9091 69.6818 30.6364 71.3636C29.3788 73.0303 27.6288 74.3333 25.3864 75.2727C23.1439 76.2121 20.5682 76.6818 17.6591 76.6818C13.3864 76.6818 9.94697 75.7879 7.34091 74C4.73485 72.197 3.18182 69.6894 2.68182 66.4773L10.7045 65.7045C11.0682 67.2803 11.8409 68.4697 13.0227 69.2727C14.2045 70.0758 15.7424 70.4773 17.6364 70.4773C19.5909 70.4773 21.1591 70.0758 22.3409 69.2727C23.5379 68.4697 24.1364 67.4773 24.1364 66.2955C24.1364 65.2955 23.75 64.4697 22.9773 63.8182C22.2197 63.1667 21.0379 62.6667 19.4318 62.3182L13.4773 61.0682C10.1288 60.3712 7.65152 59.197 6.04545 57.5455C4.43939 55.8788 3.64394 53.7727 3.65909 51.2273C3.64394 49.0758 4.22727 47.2121 5.40909 45.6364C6.60606 44.0455 8.26515 42.8182 10.3864 41.9545C12.5227 41.0758 14.9848 40.6364 17.7727 40.6364C21.8636 40.6364 25.0833 41.5076 27.4318 43.25C29.7955 44.9924 31.2576 47.3485 31.8182 50.3182ZM41.4368 76L31.5732 41.0909H39.9595L46.0959 65.6364H46.4141L52.6868 41.0909H60.9823L67.255 65.5H67.5959L73.6414 41.0909H82.0505L72.1641 76H63.5959L57.0505 52.4091H56.5732L50.0277 76H41.4368ZM82.6748 76V41.0909H90.902V76H82.6748ZM86.8111 36.1364C85.5081 36.1364 84.3869 35.7045 83.4475 34.8409C82.5081 33.9621 82.0384 32.9091 82.0384 31.6818C82.0384 30.4394 82.5081 29.3864 83.4475 28.5227C84.3869 27.6439 85.5081 27.2045 86.8111 27.2045C88.1293 27.2045 89.2505 27.6439 90.1748 28.5227C91.1142 29.3864 91.5839 30.4394 91.5839 31.6818C91.5839 32.9091 91.1142 33.9621 90.1748 34.8409C89.2505 35.7045 88.1293 36.1364 86.8111 36.1364ZM111.924 41.0909V47.4545H91.2877V41.0909H111.924ZM96.4468 76V37.7955C96.4468 35.447 96.9317 33.4924 97.9014 31.9318C98.8862 30.3712 100.204 29.2045 101.856 28.4318C103.507 27.6591 105.341 27.2727 107.356 27.2727C108.78 27.2727 110.045 27.3864 111.151 27.6136C112.257 27.8409 113.076 28.0455 113.606 28.2273L111.97 34.5909C111.621 34.4848 111.182 34.3788 110.651 34.2727C110.121 34.1515 109.53 34.0909 108.879 34.0909C107.348 34.0909 106.265 34.4621 105.629 35.2045C105.007 35.9318 104.697 36.9773 104.697 38.3409V76H96.4468ZM124.889 76.6136C122.147 76.6136 119.692 75.9091 117.526 74.5C115.359 73.0909 113.647 71.0455 112.389 68.3636C111.132 65.6818 110.503 62.4242 110.503 58.5909C110.503 54.7121 111.139 51.4394 112.412 48.7727C113.7 46.0909 115.435 44.0682 117.617 42.7045C119.798 41.3258 122.23 40.6364 124.912 40.6364C126.958 40.6364 128.639 40.9848 129.958 41.6818C131.276 42.3636 132.321 43.1894 133.094 44.1591C133.867 45.1136 134.465 46.0152 134.889 46.8636H135.23V29.4545H143.48V76H135.389V70.5H134.889C134.465 71.3485 133.851 72.25 133.048 73.2045C132.245 74.1439 131.185 74.947 129.867 75.6136C128.548 76.2803 126.889 76.6136 124.889 76.6136ZM127.185 69.8636C128.927 69.8636 130.412 69.3939 131.639 68.4545C132.867 67.5 133.798 66.1742 134.435 64.4773C135.071 62.7803 135.389 60.803 135.389 58.5455C135.389 56.2879 135.071 54.3258 134.435 52.6591C133.814 50.9924 132.889 49.697 131.662 48.7727C130.45 47.8485 128.958 47.3864 127.185 47.3864C125.351 47.3864 123.821 47.8636 122.594 48.8182C121.367 49.7727 120.442 51.0909 119.821 52.7727C119.2 54.4545 118.889 56.3788 118.889 58.5455C118.889 60.7273 119.2 62.6742 119.821 64.3864C120.458 66.0833 121.389 67.4242 122.617 68.4091C123.859 69.3788 125.382 69.8636 127.185 69.8636ZM162.582 76.6818C159.082 76.6818 156.059 75.9545 153.514 74.5C150.983 73.0303 149.036 70.9545 147.673 68.2727C146.309 65.5758 145.627 62.4015 145.627 58.75C145.627 55.1591 146.309 52.0076 147.673 49.2955C149.052 46.5682 150.976 44.447 153.445 42.9318C155.915 41.4015 158.817 40.6364 162.15 40.6364C164.302 40.6364 166.332 40.9848 168.241 41.6818C170.165 42.3636 171.862 43.4242 173.332 44.8636C174.817 46.303 175.983 48.1364 176.832 50.3636C177.68 52.5758 178.105 55.2121 178.105 58.2727V60.7955H149.491V55.25H170.218C170.203 53.6742 169.862 52.2727 169.195 51.0455C168.529 49.803 167.597 48.8258 166.4 48.1136C165.218 47.4015 163.839 47.0455 162.264 47.0455C160.582 47.0455 159.105 47.4545 157.832 48.2727C156.559 49.0758 155.567 50.1364 154.855 51.4545C154.158 52.7576 153.802 54.1894 153.786 55.75V60.5909C153.786 62.6212 154.158 64.3636 154.9 65.8182C155.642 67.2576 156.68 68.3636 158.014 69.1364C159.347 69.8939 160.908 70.2727 162.695 70.2727C163.892 70.2727 164.976 70.1061 165.945 69.7727C166.915 69.4242 167.756 68.9167 168.468 68.25C169.18 67.5833 169.718 66.7576 170.082 65.7727L177.764 66.6364C177.279 68.6667 176.355 70.4394 174.991 71.9545C173.642 73.4545 171.915 74.6212 169.809 75.4545C167.703 76.2727 165.294 76.6818 162.582 76.6818ZM179.945 76V41.0909H187.922V46.9091H188.286C188.922 44.8939 190.013 43.3409 191.558 42.25C193.119 41.1439 194.899 40.5909 196.899 40.5909C197.354 40.5909 197.861 40.6136 198.422 40.6591C198.998 40.6894 199.475 40.7424 199.854 40.8182V48.3864C199.505 48.2652 198.952 48.1591 198.195 48.0682C197.452 47.9621 196.733 47.9091 196.036 47.9091C194.536 47.9091 193.187 48.2348 191.99 48.8864C190.808 49.5227 189.877 50.4091 189.195 51.5455C188.513 52.6818 188.172 53.9924 188.172 55.4773V76H179.945Z" fill="black"/>
<path d="M31.8182 50.3182L31.9266 51.3123L33.0014 51.195L32.8008 50.1327L31.8182 50.3182ZM24.3182 51.1364L23.3552 51.406L23.5838 52.2224L24.4266 52.1305L24.3182 51.1364ZM23.2045 49L22.4132 49.6115L22.4219 49.6225L23.2045 49ZM21.1136 47.3864L21.5357 46.4798L21.5357 46.4798L21.1136 47.3864ZM13.5682 47.8864L13.0313 47.0427L13.0263 47.0459L13.5682 47.8864ZM11.8636 50.7727L12.8635 50.7877L12.8637 50.7738L12.8636 50.7599L11.8636 50.7727ZM12.9773 53.25L12.3341 54.0157L12.3416 54.0219L12.9773 53.25ZM16.7955 54.8182L16.5706 55.7926L16.5785 55.7944L16.5864 55.7961L16.7955 54.8182ZM22.75 56.0909L22.9608 55.1134L22.959 55.113L22.75 56.0909ZM30.1136 59.4773L29.4203 60.1979L29.4236 60.2011L30.1136 59.4773ZM32.5682 65.5455L33.5682 65.5524L33.5682 65.5394L32.5682 65.5455ZM30.6364 71.3636L29.839 70.7602L29.8381 70.7613L30.6364 71.3636ZM25.3864 75.2727L25.7727 76.1951L25.3864 75.2727ZM7.34091 74L6.77194 74.8224L6.77519 74.8246L7.34091 74ZM2.68182 66.4773L2.58594 65.4819L1.53065 65.5835L1.69372 66.6311L2.68182 66.4773ZM10.7045 65.7045L11.6789 65.4797L11.4817 64.6251L10.6087 64.7092L10.7045 65.7045ZM13.0227 69.2727L13.5847 68.4456L13.5847 68.4456L13.0227 69.2727ZM22.3409 69.2727L21.7838 68.4423L21.7789 68.4456L22.3409 69.2727ZM22.9773 63.8182L22.3252 64.5764L22.3327 64.5827L22.9773 63.8182ZM19.4318 62.3182L19.6439 61.3409L19.6373 61.3395L19.4318 62.3182ZM13.4773 61.0682L13.6827 60.0895L13.6811 60.0892L13.4773 61.0682ZM6.04545 57.5455L5.32537 58.2394L5.32855 58.2426L6.04545 57.5455ZM3.65909 51.2273L4.65916 51.2332L4.65907 51.2202L3.65909 51.2273ZM5.40909 45.6364L4.61 45.0351L4.60909 45.0364L5.40909 45.6364ZM10.3864 41.9545L10.7635 42.8807L10.7668 42.8794L10.3864 41.9545ZM27.4318 43.25L26.836 44.0531L26.8384 44.0549L27.4318 43.25ZM31.7097 49.3241L24.2097 50.1423L24.4266 52.1305L31.9266 51.3123L31.7097 49.3241ZM25.2811 50.8667C25.0302 49.9704 24.5936 49.1398 23.9871 48.3775L22.4219 49.6225C22.8761 50.1935 23.182 50.7872 23.3552 51.406L25.2811 50.8667ZM23.9958 48.3886C23.3692 47.5776 22.5374 46.9461 21.5357 46.4798L20.6916 48.2929C21.4474 48.6448 22.0096 49.0891 22.4133 49.6114L23.9958 48.3886ZM21.5357 46.4798C20.4901 45.9931 19.2612 45.7727 17.8864 45.7727V47.7727C19.0569 47.7727 19.9796 47.9615 20.6916 48.2929L21.5357 46.4798ZM17.8864 45.7727C16.0293 45.7727 14.3928 46.1763 13.0313 47.0427L14.1051 48.73C15.0769 48.1116 16.3191 47.7727 17.8864 47.7727V45.7727ZM13.0263 47.0459C11.6395 47.94 10.8434 49.1996 10.8637 50.7855L12.8636 50.7599C12.8536 49.9823 13.1938 49.3176 14.1101 48.7268L13.0263 47.0459ZM10.8637 50.7578C10.8442 52.0644 11.3394 53.1802 12.3341 54.0157L13.6205 52.4843C13.1 52.0471 12.8527 51.5113 12.8635 50.7877L10.8637 50.7578ZM12.3416 54.0219C13.2953 54.8074 14.7512 55.3727 16.5706 55.7926L17.0203 53.8438C15.2943 53.4455 14.2047 52.9654 13.613 52.4781L12.3416 54.0219ZM16.5864 55.7961L22.541 57.0688L22.959 55.113L17.0045 53.8403L16.5864 55.7961ZM22.5392 57.0684C25.7476 57.7602 28.0002 58.8314 29.4203 60.1978L30.807 58.7567C29.0149 57.0322 26.3585 55.8459 22.9608 55.1134L22.5392 57.0684ZM29.4236 60.2011C30.8246 61.5366 31.5545 63.2882 31.5682 65.5515L33.5682 65.5394C33.5516 62.8027 32.6451 60.5088 30.8036 58.7535L29.4236 60.2011ZM31.5682 65.5386C31.5545 67.5297 30.976 69.2577 29.839 70.7602L31.4338 71.9671C32.8422 70.1059 33.5516 67.9552 33.5682 65.5524L31.5682 65.5386ZM29.8381 70.7613C28.7035 72.265 27.1064 73.468 25 74.3504L25.7727 76.1951C28.1512 75.1987 30.0541 73.7956 31.4346 71.966L29.8381 70.7613ZM25 74.3504C22.9015 75.2295 20.4611 75.6818 17.6591 75.6818V77.6818C20.6753 77.6818 23.3864 77.1947 25.7727 76.1951L25 74.3504ZM17.6591 75.6818C13.5188 75.6818 10.2968 74.8152 7.90662 73.1754L6.77519 74.8246C9.59715 76.7606 13.2539 77.6818 17.6591 77.6818V75.6818ZM7.90987 73.1776C5.53575 71.5351 4.12898 69.2726 3.66992 66.3235L1.69372 66.6311C2.23465 70.1062 3.93395 72.8589 6.77195 74.8224L7.90987 73.1776ZM2.77769 67.4727L10.8004 66.6999L10.6087 64.7092L2.58594 65.4819L2.77769 67.4727ZM9.73015 65.9294C10.1424 67.7158 11.0426 69.1363 12.4607 70.0999L13.5847 68.4456C12.6392 67.8031 11.994 66.8448 11.6789 65.4797L9.73015 65.9294ZM12.4607 70.0999C13.8545 71.0469 15.6062 71.4773 17.6364 71.4773V69.4773C15.8787 69.4773 14.5546 69.1046 13.5847 68.4456L12.4607 70.0999ZM17.6364 71.4773C19.7196 71.4773 21.5045 71.0501 22.9029 70.0999L21.7789 68.4456C20.8137 69.1015 19.4622 69.4773 17.6364 69.4773V71.4773ZM22.898 70.1032C24.3024 69.161 25.1364 67.8863 25.1364 66.2955H23.1364C23.1364 67.0683 22.7734 67.7784 21.7838 68.4423L22.898 70.1032ZM25.1364 66.2955C25.1364 64.997 24.6172 63.8928 23.6219 63.0537L22.3327 64.5827C22.8828 65.0466 23.1364 65.5939 23.1364 66.2955H25.1364ZM23.6293 63.06C22.6891 62.2514 21.3195 61.7045 19.6439 61.3409L19.2198 63.2954C20.7563 63.6288 21.7503 64.0819 22.3252 64.5764L23.6293 63.06ZM19.6373 61.3395L13.6827 60.0895L13.2718 62.0468L19.2264 63.2968L19.6373 61.3395ZM13.6811 60.0892C10.4386 59.4143 8.17702 58.303 6.76236 56.8483L5.32855 58.2426C7.12601 60.091 9.81899 61.3282 13.2735 62.0472L13.6811 60.0892ZM6.76553 56.8516C5.35933 55.3923 4.6453 53.5463 4.65907 51.2332L2.65911 51.2213C2.64257 53.9992 3.51945 56.3653 5.32538 58.2393L6.76553 56.8516ZM4.65907 51.2202C4.6453 49.2661 5.17083 47.6207 6.20909 46.2364L4.60909 45.0364C3.28372 46.8035 2.64257 48.8854 2.65912 51.2343L4.65907 51.2202ZM6.20818 46.2376C7.28094 44.8118 8.78408 43.6866 10.7635 42.8807L10.0093 41.0284C7.74622 41.9498 5.93118 43.2792 4.61001 45.0351L6.20818 46.2376ZM10.7668 42.8794C12.7603 42.0593 15.089 41.6364 17.7727 41.6364V39.6364C14.8807 39.6364 12.2852 40.0922 10.0059 41.0297L10.7668 42.8794ZM17.7727 41.6364C21.7325 41.6364 24.7166 42.4806 26.836 44.0531L28.0277 42.4469C25.4501 40.5345 21.9948 39.6364 17.7727 39.6364V41.6364ZM26.8384 44.0549C28.9923 45.6427 30.3203 47.7742 30.8355 50.5037L32.8008 50.1327C32.1949 46.9228 30.5986 44.3422 28.0252 42.4451L26.8384 44.0549ZM41.4368 76L40.4745 76.2719L40.6802 77H41.4368V76ZM31.5732 41.0909V40.0909H30.2515L30.6109 41.3628L31.5732 41.0909ZM39.9595 41.0909L40.9297 40.8484L40.7403 40.0909H39.9595V41.0909ZM46.0959 65.6364L45.1258 65.8789L45.3151 66.6364H46.0959V65.6364ZM46.4141 65.6364V66.6364H47.1907L47.383 65.884L46.4141 65.6364ZM52.6868 41.0909V40.0909H51.9102L51.718 40.8433L52.6868 41.0909ZM60.9823 41.0909L61.9508 40.842L61.7578 40.0909H60.9823V41.0909ZM67.255 65.5L66.2865 65.7489L66.4795 66.5H67.255V65.5ZM67.5959 65.5V66.5H68.3785L68.5666 65.7404L67.5959 65.5ZM73.6414 41.0909V40.0909H72.8588L72.6707 40.8505L73.6414 41.0909ZM82.0505 41.0909L83.0126 41.3634L83.373 40.0909H82.0505V41.0909ZM72.1641 76V77H72.9202L73.1263 76.2725L72.1641 76ZM63.5959 76L62.6323 76.2674L62.8356 77H63.5959V76ZM57.0505 52.4091L58.0141 52.1417L57.8108 51.4091H57.0505V52.4091ZM56.5732 52.4091V51.4091H55.8129L55.6096 52.1417L56.5732 52.4091ZM50.0277 76V77H50.788L50.9913 76.2674L50.0277 76ZM42.3991 75.7281L32.5355 40.819L30.6109 41.3628L40.4745 76.2719L42.3991 75.7281ZM31.5732 42.0909H39.9595V40.0909H31.5732V42.0909ZM38.9894 41.3334L45.1258 65.8789L47.0661 65.3938L40.9297 40.8484L38.9894 41.3334ZM46.0959 66.6364H46.4141V64.6364H46.0959V66.6364ZM47.383 65.884L53.6557 41.3385L51.718 40.8433L45.4452 65.3888L47.383 65.884ZM52.6868 42.0909H60.9823V40.0909H52.6868V42.0909ZM60.0137 41.3398L66.2865 65.7489L68.2235 65.2511L61.9508 40.842L60.0137 41.3398ZM67.255 66.5H67.5959V64.5H67.255V66.5ZM68.5666 65.7404L74.612 41.3313L72.6707 40.8505L66.6252 65.2596L68.5666 65.7404ZM73.6414 42.0909H82.0505V40.0909H73.6414V42.0909ZM81.0883 40.8184L71.2019 75.7275L73.1263 76.2725L83.0126 41.3634L81.0883 40.8184ZM72.1641 75H63.5959V77H72.1641V75ZM64.5595 75.7326L58.0141 52.1417L56.0869 52.6764L62.6323 76.2674L64.5595 75.7326ZM57.0505 51.4091H56.5732V53.4091H57.0505V51.4091ZM55.6096 52.1417L49.0641 75.7326L50.9913 76.2674L57.5368 52.6764L55.6096 52.1417ZM50.0277 75H41.4368V77H50.0277V75ZM82.6748 76H81.6748V77H82.6748V76ZM82.6748 41.0909V40.0909H81.6748V41.0909H82.6748ZM90.902 41.0909H91.902V40.0909H90.902V41.0909ZM90.902 76V77H91.902V76H90.902ZM83.4475 34.8409L82.7643 35.5712L82.7707 35.5771L83.4475 34.8409ZM83.4475 28.5227L84.1243 29.2589L84.1307 29.253L83.4475 28.5227ZM90.1748 28.5227L89.4857 29.2474L89.4918 29.2532L89.498 29.2589L90.1748 28.5227ZM90.1748 34.8409L90.8575 35.5716L90.8579 35.5712L90.1748 34.8409ZM83.6748 76V41.0909H81.6748V76H83.6748ZM82.6748 42.0909H90.902V40.0909H82.6748V42.0909ZM89.902 41.0909V76H91.902V41.0909H89.902ZM90.902 75H82.6748V77H90.902V75ZM86.8111 35.1364C85.7529 35.1364 84.8749 34.7948 84.1243 34.1047L82.7707 35.5771C83.8989 36.6143 85.2633 37.1364 86.8111 37.1364V35.1364ZM84.1307 34.1106C83.3824 33.4107 83.0384 32.6177 83.0384 31.6818H81.0384C81.0384 33.2005 81.6338 34.5135 82.7643 35.5712L84.1307 34.1106ZM83.0384 31.6818C83.0384 30.7277 83.3846 29.939 84.1243 29.2589L82.7707 27.7866C81.6317 28.8337 81.0384 30.1511 81.0384 31.6818H83.0384ZM84.1307 29.253C84.8821 28.55 85.7581 28.2045 86.8111 28.2045V26.2045C85.2581 26.2045 83.8917 26.7379 82.7643 27.7925L84.1307 29.253ZM86.8111 28.2045C87.8824 28.2045 88.7542 28.5519 89.4857 29.2474L90.8638 27.798C89.7469 26.736 88.3763 26.2045 86.8111 26.2045V28.2045ZM89.498 29.2589C90.2377 29.939 90.5839 30.7277 90.5839 31.6818H92.5839C92.5839 30.1511 91.9906 28.8337 90.8516 27.7866L89.498 29.2589ZM90.5839 31.6818C90.5839 32.6177 90.2398 33.4107 89.4916 34.1106L90.8579 35.5712C91.9885 34.5135 92.5839 33.2005 92.5839 31.6818H90.5839ZM89.492 34.1103C88.7614 34.7929 87.8876 35.1364 86.8111 35.1364V37.1364C88.371 37.1364 89.7396 36.6161 90.8575 35.5716L89.492 34.1103ZM111.924 41.0909H112.924V40.0909H111.924V41.0909ZM111.924 47.4545V48.4545H112.924V47.4545H111.924ZM91.2877 47.4545H90.2877V48.4545H91.2877V47.4545ZM91.2877 41.0909V40.0909H90.2877V41.0909H91.2877ZM96.4468 76H95.4468V77H96.4468V76ZM97.9014 31.9318L97.0557 31.3981L97.052 31.404L97.9014 31.9318ZM101.856 28.4318L101.432 27.5261L101.432 27.5261L101.856 28.4318ZM111.151 27.6136L110.95 28.5932L110.95 28.5932L111.151 27.6136ZM113.606 28.2273L114.574 28.4763L114.805 27.5811L113.93 27.2813L113.606 28.2273ZM111.97 34.5909L111.678 35.5476L112.678 35.8518L112.938 34.8399L111.97 34.5909ZM110.651 34.2727L110.429 35.2476L110.442 35.2506L110.455 35.2533L110.651 34.2727ZM105.629 35.2045L104.869 34.5538L104.868 34.5551L105.629 35.2045ZM104.697 76V77H105.697V76H104.697ZM110.924 41.0909V47.4545H112.924V41.0909H110.924ZM111.924 46.4545H91.2877V48.4545H111.924V46.4545ZM92.2877 47.4545V41.0909H90.2877V47.4545H92.2877ZM91.2877 42.0909H111.924V40.0909H91.2877V42.0909ZM97.4468 76V37.7955H95.4468V76H97.4468ZM97.4468 37.7955C97.4468 35.5823 97.9034 33.8232 98.7507 32.4596L97.052 31.404C95.9599 33.1616 95.4468 35.3117 95.4468 37.7955H97.4468ZM98.747 32.4655C99.6311 31.0647 100.804 30.0282 102.28 29.3376L101.432 27.5261C99.6051 28.3809 98.1414 29.6778 97.0557 31.3981L98.747 32.4655ZM102.28 29.3376C103.785 28.6332 105.472 28.2727 107.356 28.2727V26.2727C105.21 26.2727 103.23 26.685 101.432 27.5261L102.28 29.3376ZM107.356 28.2727C108.729 28.2727 109.925 28.3825 110.95 28.5932L111.353 26.6341C110.166 26.3902 108.831 26.2727 107.356 26.2727V28.2727ZM110.95 28.5932C112.047 28.8186 112.814 29.013 113.282 29.1732L113.93 27.2813C113.337 27.078 112.468 26.8632 111.353 26.6341L110.95 28.5932ZM112.637 27.9782L111.001 34.3419L112.938 34.8399L114.574 28.4763L112.637 27.9782ZM112.261 33.6342C111.87 33.5153 111.396 33.4019 110.847 33.2921L110.455 35.2533C110.967 35.3557 111.372 35.4544 111.678 35.5476L112.261 33.6342ZM110.874 33.2979C110.258 33.157 109.591 33.0909 108.879 33.0909V35.0909C109.469 35.0909 109.984 35.146 110.429 35.2476L110.874 33.2979ZM108.879 33.0909C107.221 33.0909 105.781 33.4897 104.869 34.5538L106.388 35.8553C106.749 35.4345 107.476 35.0909 108.879 35.0909V33.0909ZM104.868 34.5551C104.038 35.5271 103.697 36.839 103.697 38.3409H105.697C105.697 37.1155 105.977 36.3365 106.389 35.854L104.868 34.5551ZM103.697 38.3409V76H105.697V38.3409H103.697ZM104.697 75H96.4468V77H104.697V75ZM117.526 74.5L116.98 75.3383L116.98 75.3383L117.526 74.5ZM112.389 68.3636L113.295 67.9391L113.295 67.9391L112.389 68.3636ZM112.412 48.7727L111.511 48.3398L111.51 48.342L112.412 48.7727ZM117.617 42.7045L118.147 43.5526L118.151 43.5499L117.617 42.7045ZM129.958 41.6818L129.49 42.5659L129.498 42.57L129.958 41.6818ZM133.094 44.1591L132.312 44.7823L132.317 44.7883L133.094 44.1591ZM134.889 46.8636L133.995 47.3108L134.271 47.8636H134.889V46.8636ZM135.23 46.8636V47.8636H136.23V46.8636H135.23ZM135.23 29.4545V28.4545H134.23V29.4545H135.23ZM143.48 29.4545H144.48V28.4545H143.48V29.4545ZM143.48 76V77H144.48V76H143.48ZM135.389 76H134.389V77H135.389V76ZM135.389 70.5H136.389V69.5H135.389V70.5ZM134.889 70.5V69.5H134.271L133.995 70.0528L134.889 70.5ZM133.048 73.2045L133.809 73.8543L133.814 73.8483L133.048 73.2045ZM129.867 75.6136L130.318 76.506L130.318 76.506L129.867 75.6136ZM131.639 68.4545L132.247 69.2486L132.253 69.2439L131.639 68.4545ZM134.435 64.4773L133.498 64.1261L133.498 64.1261L134.435 64.4773ZM134.435 52.6591L133.498 53.0084L133.501 53.0158L134.435 52.6591ZM131.662 48.7727L131.056 49.5679L131.06 49.5715L131.662 48.7727ZM122.594 48.8182L121.98 48.0288L121.98 48.0288L122.594 48.8182ZM119.821 52.7727L118.883 52.4262L118.883 52.4262L119.821 52.7727ZM119.821 64.3864L118.881 64.7275L118.885 64.7375L119.821 64.3864ZM122.617 68.4091L121.991 69.1891L122.001 69.1974L122.617 68.4091ZM124.889 75.6136C122.328 75.6136 120.065 74.9587 118.071 73.6617L116.98 75.3383C119.32 76.8595 121.966 77.6136 124.889 77.6136V75.6136ZM118.071 73.6617C116.082 72.3684 114.485 70.4773 113.295 67.9391L111.484 68.7882C112.809 71.6136 114.636 73.8134 116.98 75.3383L118.071 73.6617ZM113.295 67.9391C112.115 65.4232 111.503 62.319 111.503 58.5909H109.503C109.503 62.5295 110.149 65.9405 111.484 68.7882L113.295 67.9391ZM111.503 58.5909C111.503 54.8165 112.123 51.7004 113.315 49.2035L111.51 48.342C110.156 51.1784 109.503 54.6077 109.503 58.5909H111.503ZM113.313 49.2056C114.532 46.6673 116.149 44.8009 118.147 43.5525L117.087 41.8565C114.72 43.3355 112.867 45.5145 111.511 48.3398L113.313 49.2056ZM118.151 43.5499C120.166 42.2762 122.412 41.6364 124.912 41.6364V39.6364C122.049 39.6364 119.431 40.3753 117.082 41.8592L118.151 43.5499ZM124.912 41.6364C126.852 41.6364 128.359 41.968 129.49 42.5659L130.425 40.7978C128.919 40.0017 127.063 39.6364 124.912 39.6364V41.6364ZM129.498 42.57C130.715 43.1997 131.642 43.9421 132.312 44.7823L133.876 43.5359C133 42.4367 131.836 41.5276 130.417 40.7936L129.498 42.57ZM132.317 44.7883C133.056 45.7021 133.611 46.5428 133.995 47.3108L135.784 46.4164C135.319 45.4875 134.677 44.5252 133.871 43.5299L132.317 44.7883ZM134.889 47.8636H135.23V45.8636H134.889V47.8636ZM136.23 46.8636V29.4545H134.23V46.8636H136.23ZM135.23 30.4545H143.48V28.4545H135.23V30.4545ZM142.48 29.4545V76H144.48V29.4545H142.48ZM143.48 75H135.389V77H143.48V75ZM136.389 76V70.5H134.389V76H136.389ZM135.389 69.5H134.889V71.5H135.389V69.5ZM133.995 70.0528C133.615 70.8129 133.05 71.6488 132.283 72.5608L133.814 73.8483C134.652 72.8512 135.315 71.8841 135.784 70.9472L133.995 70.0528ZM132.288 72.5548C131.586 73.3761 130.638 74.1028 129.415 74.7213L130.318 76.506C131.731 75.7911 132.905 74.9118 133.809 73.8543L132.288 72.5548ZM129.415 74.7213C128.278 75.2967 126.785 75.6136 124.889 75.6136V77.6136C126.993 77.6136 128.819 77.2639 130.318 76.506L129.415 74.7213ZM127.185 70.8636C129.118 70.8636 130.823 70.3384 132.247 69.2486L131.032 67.6605C130.001 68.4495 128.737 68.8636 127.185 68.8636V70.8636ZM132.253 69.2439C133.649 68.1582 134.681 66.6693 135.371 64.8284L133.498 64.1261C132.916 65.6792 132.084 66.8418 131.025 67.6652L132.253 69.2439ZM135.371 64.8284C136.058 62.9954 136.389 60.8946 136.389 58.5455H134.389C134.389 60.7115 134.084 62.5652 133.498 64.1261L135.371 64.8284ZM136.389 58.5455C136.389 56.197 136.059 54.1087 135.369 52.3024L133.501 53.0158C134.084 54.5428 134.389 56.3788 134.389 58.5455H136.389ZM135.372 52.3098C134.695 50.4932 133.666 49.0301 132.264 47.9739L131.06 49.5715C132.113 50.3638 132.932 51.4917 133.498 53.0083L135.372 52.3098ZM132.268 47.9775C130.855 46.8995 129.139 46.3864 127.185 46.3864V48.3864C128.776 48.3864 130.045 48.7974 131.056 49.5679L132.268 47.9775ZM127.185 46.3864C125.17 46.3864 123.413 46.9144 121.98 48.0288L123.208 49.6075C124.229 48.8129 125.532 48.3864 127.185 48.3864V46.3864ZM121.98 48.0288C120.584 49.1145 119.559 50.5968 118.883 52.4262L120.759 53.1192C121.326 51.585 122.149 50.4309 123.208 49.6075L121.98 48.0288ZM118.883 52.4262C118.213 54.2394 117.889 56.2845 117.889 58.5455H119.889C119.889 56.4731 120.187 54.6697 120.759 53.1192L118.883 52.4262ZM117.889 58.5455C117.889 60.8212 118.213 62.8867 118.881 64.7274L120.761 64.0453C120.187 62.4617 119.889 60.6334 119.889 58.5455H117.889ZM118.885 64.7375C119.575 66.5767 120.603 68.0756 121.991 69.189L123.242 67.6292C122.175 66.7729 121.34 65.5899 120.757 64.0352L118.885 64.7375ZM122.001 69.1974C123.444 70.3237 125.192 70.8636 127.185 70.8636V68.8636C125.571 68.8636 124.274 68.4339 123.232 67.6208L122.001 69.1974ZM153.514 74.5L153.011 75.3647L153.017 75.3682L153.514 74.5ZM147.673 68.2727L146.78 68.7239L146.781 68.726L147.673 68.2727ZM147.673 49.2955L146.78 48.8443L146.779 48.8462L147.673 49.2955ZM153.445 42.9318L153.968 43.7842L153.972 43.7819L153.445 42.9318ZM168.241 41.6818L167.898 42.6212L167.907 42.6244L168.241 41.6818ZM173.332 44.8636L172.632 45.5781L172.636 45.5816L173.332 44.8636ZM176.832 50.3636L175.897 50.7196L175.898 50.7218L176.832 50.3636ZM178.105 60.7955V61.7955H179.105V60.7955H178.105ZM149.491 60.7955H148.491V61.7955H149.491V60.7955ZM149.491 55.25V54.25H148.491V55.25H149.491ZM170.218 55.25V56.25H171.228L171.218 55.2404L170.218 55.25ZM169.195 51.0455L168.314 51.5183L168.317 51.5228L169.195 51.0455ZM166.4 48.1136L165.884 48.9702L165.889 48.973L166.4 48.1136ZM157.832 48.2727L158.365 49.1185L158.373 49.1139L157.832 48.2727ZM154.855 51.4545L153.975 50.9792L153.973 50.9829L154.855 51.4545ZM153.786 55.75L152.786 55.7403V55.75H153.786ZM154.9 65.8182L154.009 66.2728L154.011 66.2766L154.9 65.8182ZM158.014 69.1364L157.512 70.0016L157.52 70.0058L158.014 69.1364ZM165.945 69.7727L166.271 70.7185L166.284 70.7138L165.945 69.7727ZM168.468 68.25L167.785 67.52L168.468 68.25ZM170.082 65.7727L170.194 64.779L169.415 64.6915L169.144 65.4264L170.082 65.7727ZM177.764 66.6364L178.736 66.8686L178.999 65.7689L177.875 65.6426L177.764 66.6364ZM174.991 71.9545L174.248 71.2856L174.247 71.286L174.991 71.9545ZM169.809 75.4545L170.171 76.3867L170.177 76.3844L169.809 75.4545ZM162.582 75.6818C159.222 75.6818 156.377 74.9846 154.01 73.6318L153.017 75.3682C155.741 76.9245 158.942 77.6818 162.582 77.6818V75.6818ZM154.016 73.6353C151.657 72.2652 149.843 70.3346 148.564 67.8195L146.781 68.726C148.23 71.5745 150.31 73.7954 153.011 75.3647L154.016 73.6353ZM148.565 67.8215C147.285 65.2906 146.627 62.277 146.627 58.75H144.627C144.627 62.526 145.333 65.8609 146.78 68.7239L148.565 67.8215ZM146.627 58.75C146.627 55.2867 147.284 52.2941 148.566 49.7447L146.779 48.8462C145.334 51.7211 144.627 55.0315 144.627 58.75H146.627ZM148.565 49.7466C149.865 47.1753 151.665 45.197 153.968 43.7842L152.923 42.0794C150.286 43.6969 148.238 45.9611 146.78 48.8443L148.565 49.7466ZM153.972 43.7819C156.261 42.3634 158.975 41.6364 162.15 41.6364V39.6364C158.659 39.6364 155.569 40.4397 152.919 42.0818L153.972 43.7819ZM162.15 41.6364C164.191 41.6364 166.105 41.9666 167.898 42.6212L168.584 40.7425C166.559 40.0031 164.412 39.6364 162.15 39.6364V41.6364ZM167.907 42.6244C169.693 43.2573 171.265 44.2396 172.632 45.5781L174.032 44.1492C172.459 42.6089 170.637 41.47 168.575 40.7392L167.907 42.6244ZM172.636 45.5816C174.001 46.9048 175.093 48.6082 175.897 50.7196L177.766 50.0076C176.874 47.6645 175.633 45.7012 174.028 44.1456L172.636 45.5816ZM175.898 50.7218C176.692 52.7916 177.105 55.3005 177.105 58.2727H179.105C179.105 55.1237 178.669 52.3599 177.765 50.0055L175.898 50.7218ZM177.105 58.2727V60.7955H179.105V58.2727H177.105ZM178.105 59.7955H149.491V61.7955H178.105V59.7955ZM150.491 60.7955V55.25H148.491V60.7955H150.491ZM149.491 56.25H170.218V54.25H149.491V56.25ZM171.218 55.2404C171.202 53.5224 170.828 51.9566 170.074 50.5681L168.317 51.5228C168.896 52.5888 169.204 53.8261 169.218 55.2596L171.218 55.2404ZM170.077 50.5726C169.325 49.1722 168.266 48.0604 166.911 47.2542L165.889 48.973C166.928 49.5911 167.732 50.4338 168.314 51.5183L170.077 50.5726ZM166.916 47.2571C165.557 46.4384 163.995 46.0455 162.264 46.0455V48.0455C163.684 48.0455 164.879 48.3646 165.884 48.9702L166.916 47.2571ZM162.264 46.0455C160.412 46.0455 158.743 46.4983 157.291 47.4315L158.373 49.1139C159.466 48.4108 160.751 48.0455 162.264 48.0455V46.0455ZM157.298 47.427C155.881 48.3213 154.769 49.5092 153.975 50.9792L155.734 51.9298C156.364 50.7635 157.237 49.8302 158.365 49.1185L157.298 47.427ZM153.973 50.9829C153.195 52.4361 152.803 54.0278 152.786 55.7403L154.786 55.7597C154.8 54.351 155.12 53.079 155.736 51.9262L153.973 50.9829ZM152.786 55.75V60.5909H154.786V55.75H152.786ZM152.786 60.5909C152.786 62.7416 153.18 64.6474 154.009 66.2728L155.791 65.3636C155.135 64.0799 154.786 62.5008 154.786 60.5909H152.786ZM154.011 66.2766C154.837 67.8767 156.005 69.128 157.512 70.0016L158.515 68.2712C157.356 67.5992 156.448 66.6384 155.789 65.3598L154.011 66.2766ZM157.52 70.0058C159.027 70.8622 160.763 71.2727 162.695 71.2727V69.2727C161.052 69.2727 159.667 68.9257 158.508 68.2669L157.52 70.0058ZM162.695 71.2727C163.985 71.2727 165.18 71.0932 166.271 70.7184L165.62 68.827C164.771 69.119 163.8 69.2727 162.695 69.2727V71.2727ZM166.284 70.7138C167.374 70.3219 168.334 69.745 169.152 68.98L167.785 67.52C167.178 68.0883 166.456 68.5266 165.607 68.8317L166.284 70.7138ZM169.152 68.98C169.986 68.199 170.607 67.2385 171.02 66.1191L169.144 65.4264C168.83 66.2766 168.375 66.9676 167.785 67.52L169.152 68.98ZM169.97 66.7665L177.652 67.6301L177.875 65.6426L170.194 64.779L169.97 66.7665ZM176.791 66.4041C176.344 68.276 175.497 69.8976 174.248 71.2856L175.734 72.6235C177.212 70.9812 178.214 69.0573 178.736 66.8686L176.791 66.4041ZM174.247 71.286C173.014 72.6576 171.421 73.7412 169.441 74.5247L170.177 76.3844C172.409 75.5012 174.271 74.2515 175.735 72.6231L174.247 71.286ZM169.447 74.5224C167.477 75.2877 165.194 75.6818 162.582 75.6818V77.6818C165.394 77.6818 167.929 77.2577 170.171 76.3867L169.447 74.5224ZM179.945 76H178.945V77H179.945V76ZM179.945 41.0909V40.0909H178.945V41.0909H179.945ZM187.922 41.0909H188.922V40.0909H187.922V41.0909ZM187.922 46.9091H186.922V47.9091H187.922V46.9091ZM188.286 46.9091V47.9091H189.019L189.239 47.2102L188.286 46.9091ZM191.558 42.25L192.135 43.067L192.137 43.0659L191.558 42.25ZM198.422 40.6591L198.341 41.6558L198.355 41.657L198.369 41.6577L198.422 40.6591ZM199.854 40.8182H200.854V39.9984L200.05 39.8376L199.854 40.8182ZM199.854 48.3864L199.525 49.3309L200.854 49.793V48.3864H199.854ZM198.195 48.0682L198.053 49.0581L198.064 49.0597L198.076 49.0611L198.195 48.0682ZM191.99 48.8864L192.464 49.7668L192.468 49.7647L191.99 48.8864ZM188.172 76V77H189.172V76H188.172ZM180.945 76V41.0909H178.945V76H180.945ZM179.945 42.0909H187.922V40.0909H179.945V42.0909ZM186.922 41.0909V46.9091H188.922V41.0909H186.922ZM187.922 47.9091H188.286V45.9091H187.922V47.9091ZM189.239 47.2102C189.818 45.3779 190.789 44.0171 192.135 43.067L190.982 41.433C189.237 42.6648 188.026 44.41 187.332 46.608L189.239 47.2102ZM192.137 43.0659C193.52 42.0853 195.096 41.5909 196.899 41.5909V39.5909C194.702 39.5909 192.718 40.2026 190.98 41.4341L192.137 43.0659ZM196.899 41.5909C197.321 41.5909 197.801 41.6121 198.341 41.6558L198.503 39.6624C197.921 39.6152 197.386 39.5909 196.899 39.5909V41.5909ZM198.369 41.6577C198.918 41.6866 199.343 41.7359 199.658 41.7988L200.05 39.8376C199.607 39.749 199.078 39.6922 198.475 39.6605L198.369 41.6577ZM198.854 40.8182V48.3864H200.854V40.8182H198.854ZM200.182 47.4419C199.727 47.2834 199.084 47.1677 198.314 47.0753L198.076 49.0611C198.821 49.1505 199.284 49.2469 199.525 49.3309L200.182 47.4419ZM198.336 47.0782C197.55 46.966 196.783 46.9091 196.036 46.9091V48.9091C196.682 48.9091 197.354 48.9583 198.053 49.0581L198.336 47.0782ZM196.036 46.9091C194.386 46.9091 192.87 47.2688 191.512 48.008L192.468 49.7647C193.504 49.2008 194.686 48.9091 196.036 48.9091V46.9091ZM191.516 48.0059C190.178 48.7264 189.113 49.7383 188.337 51.031L190.052 52.0599C190.64 51.0799 191.439 50.3191 192.464 49.7668L191.516 48.0059ZM188.337 51.031C187.551 52.3409 187.172 53.8336 187.172 55.4773H189.172C189.172 54.1513 189.475 53.0228 190.052 52.0599L188.337 51.031ZM187.172 55.4773V76H189.172V55.4773H187.172ZM188.172 75H179.945V77H188.172V75Z" fill="black" mask="url(#path-1-outside-1_827_2)"/>
<path d="M83.443 23.1331C82.3381 23.6789 74.7103 14.4998 72.5799 10.1875C70.2718 5.51542 71.2623 3.4715 73.2457 2.49167C75.2291 1.51184 77.4542 1.96714 79.7624 6.63924C81.9166 11 84.3576 22.6812 83.443 23.1331Z" fill="black"/>
<path d="M77.4004 27.7277C77 28.7408 66.7618 27.4401 62.1763 25.6277C57.7692 23.8858 57.19 21.9031 57.9295 20.032C58.669 18.1609 60.4473 17.1099 64.8545 18.8519C69.0238 20.4998 77.8008 26.7147 77.4004 27.7277Z" fill="black"/>
<path d="M91.0342 22.0575C90.2421 21.7488 91.0364 11.2633 92.8469 6.61814C94.581 2.16921 96.6791 1.61631 98.6952 2.40212C100.711 3.18793 101.882 5.01487 100.148 9.4638C98.7308 13.0995 91.8263 22.3663 91.0342 22.0575Z" fill="black"/>
</svg>
