<svg width="197" height="99" viewBox="0 0 197 99" fill="none" xmlns="http://www.w3.org/2000/svg">
<path d="M32.9091 69.0455L24.0455 69.5909C23.8939 68.8333 23.5682 68.1515 23.0682 67.5455C22.5682 66.9242 21.9091 66.4318 21.0909 66.0682C20.2879 65.6894 19.3258 65.5 18.2045 65.5C16.7045 65.5 15.4394 65.8182 14.4091 66.4545C13.3788 67.0758 12.8636 67.9091 12.8636 68.9545C12.8636 69.7879 13.197 70.4924 13.8636 71.0682C14.5303 71.6439 15.6742 72.1061 17.2955 72.4545L23.6136 73.7273C27.0076 74.4242 29.5379 75.5455 31.2045 77.0909C32.8712 78.6364 33.7045 80.6667 33.7045 83.1818C33.7045 85.4697 33.0303 87.4773 31.6818 89.2045C30.3485 90.9318 28.5152 92.2803 26.1818 93.25C23.8636 94.2045 21.1894 94.6818 18.1591 94.6818C13.5379 94.6818 9.85606 93.7197 7.11364 91.7955C4.38636 89.8561 2.78788 87.2197 2.31818 83.8864L11.8409 83.3864C12.1288 84.7955 12.8258 85.8712 13.9318 86.6136C15.0379 87.3409 16.4545 87.7045 18.1818 87.7045C19.8788 87.7045 21.2424 87.3788 22.2727 86.7273C23.3182 86.0606 23.8485 85.2045 23.8636 84.1591C23.8485 83.2803 23.4773 82.5606 22.75 82C22.0227 81.4242 20.9015 80.9848 19.3864 80.6818L13.3409 79.4773C9.93182 78.7955 7.39394 77.6136 5.72727 75.9318C4.07576 74.25 3.25 72.1061 3.25 69.5C3.25 67.2576 3.85606 65.3258 5.06818 63.7045C6.29545 62.0833 8.01515 60.8333 10.2273 59.9545C12.4545 59.0758 15.0606 58.6364 18.0455 58.6364C22.4545 58.6364 25.9242 59.5682 28.4545 61.4318C31 63.2955 32.4848 65.8333 32.9091 69.0455ZM39.6475 94L30.1475 59.0909H39.943L45.352 82.5455H45.6702L51.3066 59.0909H60.9202L66.6475 82.4091H66.943L72.2611 59.0909H82.0339L72.5566 94H62.3066L56.3066 72.0455H55.8748L49.8748 94H39.6475ZM80.1586 94V59.0909H89.8405V94H80.1586ZM85.0223 54.5909C83.5829 54.5909 82.348 54.1136 81.3177 53.1591C80.3026 52.1894 79.795 51.0303 79.795 49.6818C79.795 48.3485 80.3026 47.2045 81.3177 46.25C82.348 45.2803 83.5829 44.7955 85.0223 44.7955C86.4617 44.7955 87.6889 45.2803 88.7041 46.25C89.7344 47.2045 90.2495 48.3485 90.2495 49.6818C90.2495 51.0303 89.7344 52.1894 88.7041 53.1591C87.6889 54.1136 86.4617 54.5909 85.0223 54.5909ZM109.329 59.0909V66.3636H87.7834V59.0909H109.329ZM92.7152 94V56.5682C92.7152 54.0379 93.2076 51.9394 94.1925 50.2727C95.1925 48.6061 96.5561 47.3561 98.2834 46.5227C100.011 45.6894 101.973 45.2727 104.17 45.2727C105.655 45.2727 107.011 45.3864 108.238 45.6136C109.48 45.8409 110.405 46.0455 111.011 46.2273L109.283 53.5C108.905 53.3788 108.435 53.2651 107.874 53.1591C107.329 53.053 106.768 53 106.192 53C104.768 53 103.776 53.3333 103.215 54C102.655 54.6515 102.374 55.5682 102.374 56.75V94H92.7152ZM119.817 94.5682C117.166 94.5682 114.764 93.8864 112.613 92.5227C110.476 91.1439 108.779 89.1212 107.522 86.4545C106.279 83.7727 105.658 80.4848 105.658 76.5909C105.658 72.5909 106.302 69.2652 107.59 66.6136C108.878 63.947 110.59 61.9545 112.726 60.6364C114.878 59.303 117.234 58.6364 119.795 58.6364C121.749 58.6364 123.378 58.9697 124.681 59.6364C125.999 60.2879 127.06 61.1061 127.863 62.0909C128.681 63.0606 129.302 64.0152 129.726 64.9545H130.022V47.4545H139.681V94H130.135V88.4091H129.726C129.272 89.3788 128.628 90.3409 127.795 91.2955C126.976 92.2348 125.908 93.0152 124.59 93.6364C123.287 94.2576 121.696 94.5682 119.817 94.5682ZM122.885 86.8636C124.446 86.8636 125.764 86.4394 126.84 85.5909C127.931 84.7273 128.764 83.5227 129.34 81.9773C129.931 80.4318 130.226 78.6212 130.226 76.5455C130.226 74.4697 129.938 72.6667 129.363 71.1364C128.787 69.6061 127.954 68.4242 126.863 67.5909C125.772 66.7576 124.446 66.3409 122.885 66.3409C121.295 66.3409 119.954 66.7727 118.863 67.6364C117.772 68.5 116.946 69.697 116.385 71.2273C115.825 72.7576 115.545 74.5303 115.545 76.5455C115.545 78.5758 115.825 80.3712 116.385 81.9318C116.961 83.4773 117.787 84.6894 118.863 85.5682C119.954 86.4318 121.295 86.8636 122.885 86.8636ZM156.51 94.6818C152.919 94.6818 149.828 93.9545 147.238 92.5C144.662 91.0303 142.677 88.9545 141.283 86.2727C139.889 83.5758 139.192 80.3864 139.192 76.7045C139.192 73.1136 139.889 69.9621 141.283 67.25C142.677 64.5379 144.639 62.4242 147.169 60.9091C149.715 59.3939 152.7 58.6364 156.124 58.6364C158.427 58.6364 160.571 59.0076 162.556 59.75C164.556 60.4773 166.298 61.5758 167.783 63.0455C169.283 64.5152 170.45 66.3636 171.283 68.5909C172.116 70.803 172.533 73.3939 172.533 76.3636V79.0227H143.056V73.0227H163.419C163.419 71.6288 163.116 70.3939 162.51 69.3182C161.904 68.2424 161.063 67.4015 159.988 66.7955C158.927 66.1742 157.692 65.8636 156.283 65.8636C154.813 65.8636 153.51 66.2045 152.374 66.8864C151.253 67.553 150.374 68.4545 149.738 69.5909C149.101 70.7121 148.775 71.9621 148.76 73.3409V79.0455C148.76 80.7727 149.078 82.2652 149.715 83.5227C150.366 84.7803 151.283 85.75 152.465 86.4318C153.647 87.1136 155.048 87.4545 156.669 87.4545C157.745 87.4545 158.73 87.303 159.624 87C160.518 86.697 161.283 86.2424 161.919 85.6364C162.556 85.0303 163.041 84.2879 163.374 83.4091L172.328 84C171.874 86.1515 170.942 88.0303 169.533 89.6364C168.139 91.2273 166.336 92.4697 164.124 93.3636C161.927 94.2424 159.389 94.6818 156.51 94.6818ZM171.811 94V59.0909H181.197V65.1818H181.561C182.197 63.0152 183.266 61.3788 184.766 60.2727C186.266 59.1515 187.993 58.5909 189.947 58.5909C190.432 58.5909 190.955 58.6212 191.516 58.6818C192.076 58.7424 192.569 58.8258 192.993 58.9318V67.5227C192.538 67.3864 191.91 67.2652 191.107 67.1591C190.304 67.053 189.569 67 188.902 67C187.478 67 186.205 67.3106 185.084 67.9318C183.978 68.5379 183.099 69.3864 182.447 70.4773C181.811 71.5682 181.493 72.8258 181.493 74.25V94H171.811Z" fill="black"/>
<path d="M81.5339 40.8276C78.8961 42.334 66.1666 25.0092 61.2417 16.3854C56.3169 7.76155 57.138 4.23386 59.7757 2.7275C62.4134 1.22114 65.869 2.30655 70.7939 10.9304C75.7187 19.5542 84.1716 39.3213 81.5339 40.8276Z" fill="black"/>
<path d="M74.6633 47.6386C73.5496 49.8514 57.0885 43.8144 49.854 40.1731C42.6195 36.5319 41.5874 33.7641 42.7011 31.5513C43.8149 29.3385 46.6527 28.5186 53.8873 32.1599C61.1218 35.8012 75.7771 45.4258 74.6633 47.6386Z" fill="black"/>
<path d="M89.2153 40.3491C86.7482 39.5223 90.561 21.5059 93.2639 13.4399C95.9669 5.3739 98.6898 3.88676 101.157 4.7135C103.624 5.54024 104.901 8.36779 102.198 16.4338C99.4952 24.4997 91.6824 41.1758 89.2153 40.3491Z" fill="black"/>
</svg>
