<svg width="1692" height="225" viewBox="0 0 1692 225" fill="none" xmlns="http://www.w3.org/2000/svg">
<path d="M57.1449 104.166C57.1449 75.3367 82.7675 52.0282 114.29 52.0282C145.812 52.0282 171.435 75.3367 171.435 104.166V225H228.58V104.166C228.58 46.6714 177.448 0 114.29 0C51.1314 0 0 46.6714 0 104.166V225H57.1449V104.166Z" fill="#0023F5"/>
<path d="M342.855 104.166C342.855 75.3367 317.233 52.0282 285.71 52.0282H257.138V0H285.71C348.869 0 400 46.6714 400 104.166V225H342.855V104.166Z" fill="#0023F5"/>
<path d="M1241.97 88.2161H1218.43V58.4803H1241.97V44.6036C1241.97 30.2314 1246.35 19.2456 1255.1 11.6465C1264.02 3.88217 1275.42 0 1289.3 0C1303.72 0 1315 2.81078 1323.13 8.43234L1309.6 36.1784C1306.02 31.3627 1299.55 30.9747 1293.59 30.9747C1285.66 30.9747 1279.14 36.2053 1279.14 44.6036V58.4803H1308.87V88.2161H1279.14V175.937H1241.97V88.2161Z" fill="#252525"/>
<path d="M1363.17 2.47736H1326V175.936H1363.17V2.47736Z" fill="#252525"/>
<path d="M562.06 70.6218V58.4797H524.891V175.936H562.06V105.314C562.06 99.3664 563.382 94.8234 566.025 91.6847C568.833 88.3807 572.468 86.7287 576.928 86.7287C581.554 86.7287 585.188 88.0503 587.831 90.6935C590.474 93.3366 591.796 97.384 591.796 102.836V175.936H628.966V105.314C628.966 99.036 630.205 94.1626 632.683 90.6935C635.161 87.2243 638.878 85.4897 643.834 85.4897C648.294 85.4897 651.846 87.0591 654.489 90.1979C657.297 93.1714 658.702 97.384 658.702 102.836V175.936H695.871V96.6406C695.871 84.0855 692.072 74.1736 684.473 66.9048C676.873 59.6361 666.631 56.0017 653.746 56.0017C638.712 56.0017 627.149 62.5271 619.054 75.5778C616.576 69.4654 612.694 64.6747 607.407 61.2055C602.121 57.7363 596.091 56.0017 589.318 56.0017C577.424 56.0017 568.338 60.8751 562.06 70.6218Z" fill="#252525"/>
<path fill-rule="evenodd" clip-rule="evenodd" d="M738.409 170.732C747.991 175.853 758.729 178.414 770.623 178.414C782.517 178.414 793.173 175.853 802.589 170.732C812.17 165.446 819.604 158.177 824.891 148.926C830.342 139.51 833.068 128.937 833.068 117.208C833.068 105.479 830.342 94.9886 824.891 85.7375C819.604 76.3212 812.17 69.0524 802.589 63.9313C793.173 58.6449 782.517 56.0017 770.623 56.0017C758.729 56.0017 747.991 58.6449 738.409 63.9313C728.993 69.0524 721.559 76.3212 716.107 85.7375C710.821 94.9886 708.178 105.479 708.178 117.208C708.178 128.937 710.821 139.51 716.107 148.926C721.559 158.177 728.993 165.446 738.409 170.732ZM789.456 137.527C784.5 142.483 778.222 144.961 770.623 144.961C763.024 144.961 756.664 142.483 751.543 137.527C746.587 132.406 744.109 125.633 744.109 117.208C744.109 108.783 746.587 102.092 751.543 97.1362C756.664 92.0151 763.024 89.4545 770.623 89.4545C778.222 89.4545 784.5 92.0151 789.456 97.1362C794.577 102.092 797.137 108.783 797.137 117.208C797.137 125.633 794.577 132.406 789.456 137.527Z" fill="#252525"/>
<path d="M845.547 175.936V58.4797H882.717V72.3564C886.351 67.0701 891.224 63.0227 897.337 60.2143C903.614 57.4059 910.305 56.0017 917.408 56.0017C930.789 56.0017 941.362 59.8013 949.126 67.4004C956.891 74.9996 960.773 85.5723 960.773 99.1186V175.936H923.603V107.792C923.603 101.018 921.786 95.6494 918.152 91.6847C914.682 87.5547 909.892 85.4897 903.779 85.4897C897.337 85.4897 892.215 87.7199 888.416 92.1802C884.616 96.6406 882.717 103.083 882.717 111.508V175.936H845.547Z" fill="#252525"/>
<path fill-rule="evenodd" clip-rule="evenodd" d="M1051.98 142.483C1048.51 145.126 1043.55 146.448 1037.11 146.448C1029.67 146.448 1023.48 144.466 1018.52 140.501C1013.73 136.536 1011.01 131.415 1010.35 125.137H1087.16C1088.15 119.851 1088.65 114.812 1088.65 110.022C1088.65 93.667 1083.61 80.6163 1073.53 70.8696C1063.62 60.9577 1050.08 56.0017 1032.9 56.0017C1021.33 56.0017 1011.01 58.7275 1001.92 64.1791C992.835 69.4654 985.731 76.7342 980.61 85.9853C975.654 95.2364 973.176 105.396 973.176 116.464C973.176 128.689 975.902 139.51 981.354 148.926C986.97 158.177 994.57 165.446 1004.15 170.732C1013.73 175.853 1024.55 178.414 1036.61 178.414C1050.32 178.414 1061.89 175.275 1071.3 168.998C1080.89 162.72 1087.66 154.212 1091.62 143.474L1060.15 131.085C1058.34 135.875 1055.61 139.675 1051.98 142.483ZM1019.27 88.9589C1023.56 86.3157 1028.1 84.9941 1032.9 84.9941C1039.17 84.9941 1044.05 86.4809 1047.52 89.4545C1051.15 92.2628 1052.97 95.8972 1052.97 100.358H1010.35C1012.16 95.4016 1015.14 91.6021 1019.27 88.9589Z" fill="#252525"/>
<path d="M1218.17 58.4797L1137.14 225H1099.97L1131.44 160.325L1083.86 58.4797H1122.27L1150.77 120.677L1181 58.4797H1218.17Z" fill="#252525"/>
<path fill-rule="evenodd" clip-rule="evenodd" d="M1437.91 178.414C1426.02 178.414 1415.28 175.853 1405.7 170.732C1396.28 165.446 1388.85 158.177 1383.4 148.926C1378.11 139.51 1375.47 128.937 1375.47 117.208C1375.47 105.479 1378.11 94.9886 1383.4 85.7375C1388.85 76.3212 1396.28 69.0524 1405.7 63.9313C1415.28 58.6449 1426.02 56.0017 1437.91 56.0017C1449.81 56.0017 1460.46 58.6449 1469.88 63.9313C1479.46 69.0524 1486.89 76.3212 1492.18 85.7375C1497.63 94.9886 1500.36 105.479 1500.36 117.208C1500.36 128.937 1497.63 139.51 1492.18 148.926C1486.89 158.177 1479.46 165.446 1469.88 170.732C1460.46 175.853 1449.81 178.414 1437.91 178.414ZM1437.91 144.961C1445.51 144.961 1451.79 142.483 1456.75 137.527C1461.87 132.406 1464.43 125.633 1464.43 117.208C1464.43 108.783 1461.87 102.092 1456.75 97.1362C1451.79 92.0151 1445.51 89.4545 1437.91 89.4545C1430.31 89.4545 1423.95 92.0151 1418.83 97.1362C1413.88 102.092 1411.4 108.783 1411.4 117.208C1411.4 125.633 1413.88 132.406 1418.83 137.527C1423.95 142.483 1430.31 144.961 1437.91 144.961Z" fill="#252525"/>
<path d="M1573.58 58.4797L1556.24 142.483L1537.65 58.4797H1500.48L1530.22 175.936H1581.02L1595.88 106.057L1610.75 175.936H1661.55L1691.29 58.4797H1654.12L1635.53 142.483L1618.19 58.4797H1573.58Z" fill="#252525"/>
</svg>
