<svg width="244" height="82" viewBox="0 0 244 82" fill="none" xmlns="http://www.w3.org/2000/svg">
<mask id="path-1-outside-1_827_2" maskUnits="userSpaceOnUse" x="1" y="26" width="227" height="52" fill="black">
<rect fill="white" x="1" y="26" width="227" height="52"/>
<path d="M31.8182 50.3182L24.3182 51.1364C24.1061 50.3788 23.7348 49.6667 23.2045 49C22.6894 48.3333 21.9924 47.7955 21.1136 47.3864C20.2348 46.9773 19.1591 46.7727 17.8864 46.7727C16.1742 46.7727 14.7348 47.1439 13.5682 47.8864C12.4167 48.6288 11.8485 49.5909 11.8636 50.7727C11.8485 51.7879 12.2197 52.6136 12.9773 53.25C13.75 53.8864 15.0227 54.4091 16.7955 54.8182L22.75 56.0909C26.053 56.803 28.5076 57.9318 30.1136 59.4773C31.7348 61.0227 32.553 63.0455 32.5682 65.5455C32.553 67.7424 31.9091 69.6818 30.6364 71.3636C29.3788 73.0303 27.6288 74.3333 25.3864 75.2727C23.1439 76.2121 20.5682 76.6818 17.6591 76.6818C13.3864 76.6818 9.94697 75.7879 7.34091 74C4.73485 72.197 3.18182 69.6894 2.68182 66.4773L10.7045 65.7045C11.0682 67.2803 11.8409 68.4697 13.0227 69.2727C14.2045 70.0758 15.7424 70.4773 17.6364 70.4773C19.5909 70.4773 21.1591 70.0758 22.3409 69.2727C23.5379 68.4697 24.1364 67.4773 24.1364 66.2955C24.1364 65.2955 23.75 64.4697 22.9773 63.8182C22.2197 63.1667 21.0379 62.6667 19.4318 62.3182L13.4773 61.0682C10.1288 60.3712 7.65152 59.197 6.04545 57.5455C4.43939 55.8788 3.64394 53.7727 3.65909 51.2273C3.64394 49.0758 4.22727 47.2121 5.40909 45.6364C6.60606 44.0455 8.26515 42.8182 10.3864 41.9545C12.5227 41.0758 14.9848 40.6364 17.7727 40.6364C21.8636 40.6364 25.0833 41.5076 27.4318 43.25C29.7955 44.9924 31.2576 47.3485 31.8182 50.3182ZM45.9168 76L36.0532 41.0909H44.4395L50.5759 65.6364H50.8941L57.1668 41.0909H65.4623L71.735 65.5H72.0759L78.1214 41.0909H86.5305L76.6441 76H68.0759L61.5305 52.4091H61.0532L54.5077 76H45.9168ZM91.6348 76V41.0909H99.862V76H91.6348ZM95.7711 36.1364C94.4681 36.1364 93.3469 35.7045 92.4075 34.8409C91.4681 33.9621 90.9984 32.9091 90.9984 31.6818C90.9984 30.4394 91.4681 29.3864 92.4075 28.5227C93.3469 27.6439 94.4681 27.2045 95.7711 27.2045C97.0893 27.2045 98.2105 27.6439 99.1348 28.5227C100.074 29.3864 100.544 30.4394 100.544 31.6818C100.544 32.9091 100.074 33.9621 99.1348 34.8409C98.2105 35.7045 97.0893 36.1364 95.7711 36.1364ZM125.364 41.0909V47.4545H104.728V41.0909H125.364ZM109.887 76V37.7955C109.887 35.447 110.372 33.4924 111.341 31.9318C112.326 30.3712 113.644 29.2045 115.296 28.4318C116.947 27.6591 118.781 27.2727 120.796 27.2727C122.22 27.2727 123.485 27.3864 124.591 27.6136C125.697 27.8409 126.516 28.0455 127.046 28.2273L125.41 34.5909C125.061 34.4848 124.622 34.3788 124.091 34.2727C123.561 34.1515 122.97 34.0909 122.319 34.0909C120.788 34.0909 119.705 34.4621 119.069 35.2045C118.447 35.9318 118.137 36.9773 118.137 38.3409V76H109.887ZM142.809 76.6136C140.067 76.6136 137.612 75.9091 135.446 74.5C133.279 73.0909 131.567 71.0455 130.309 68.3636C129.052 65.6818 128.423 62.4242 128.423 58.5909C128.423 54.7121 129.059 51.4394 130.332 48.7727C131.62 46.0909 133.355 44.0682 135.537 42.7045C137.718 41.3258 140.15 40.6364 142.832 40.6364C144.878 40.6364 146.559 40.9848 147.878 41.6818C149.196 42.3636 150.241 43.1894 151.014 44.1591C151.787 45.1136 152.385 46.0152 152.809 46.8636H153.15V29.4545H161.4V76H153.309V70.5H152.809C152.385 71.3485 151.771 72.25 150.968 73.2045C150.165 74.1439 149.105 74.947 147.787 75.6136C146.468 76.2803 144.809 76.6136 142.809 76.6136ZM145.105 69.8636C146.847 69.8636 148.332 69.3939 149.559 68.4545C150.787 67.5 151.718 66.1742 152.355 64.4773C152.991 62.7803 153.309 60.803 153.309 58.5455C153.309 56.2879 152.991 54.3258 152.355 52.6591C151.734 50.9924 150.809 49.697 149.582 48.7727C148.37 47.8485 146.878 47.3864 145.105 47.3864C143.271 47.3864 141.741 47.8636 140.514 48.8182C139.287 49.7727 138.362 51.0909 137.741 52.7727C137.12 54.4545 136.809 56.3788 136.809 58.5455C136.809 60.7273 137.12 62.6742 137.741 64.3864C138.378 66.0833 139.309 67.4242 140.537 68.4091C141.779 69.3788 143.302 69.8636 145.105 69.8636ZM184.982 76.6818C181.482 76.6818 178.459 75.9545 175.914 74.5C173.383 73.0303 171.436 70.9545 170.073 68.2727C168.709 65.5758 168.027 62.4015 168.027 58.75C168.027 55.1591 168.709 52.0076 170.073 49.2955C171.452 46.5682 173.376 44.447 175.845 42.9318C178.315 41.4015 181.217 40.6364 184.55 40.6364C186.702 40.6364 188.732 40.9848 190.641 41.6818C192.565 42.3636 194.262 43.4242 195.732 44.8636C197.217 46.303 198.383 48.1364 199.232 50.3636C200.08 52.5758 200.505 55.2121 200.505 58.2727V60.7955H171.891V55.25H192.618C192.603 53.6742 192.262 52.2727 191.595 51.0455C190.929 49.803 189.997 48.8258 188.8 48.1136C187.618 47.4015 186.239 47.0455 184.664 47.0455C182.982 47.0455 181.505 47.4545 180.232 48.2727C178.959 49.0758 177.967 50.1364 177.255 51.4545C176.558 52.7576 176.202 54.1894 176.186 55.75V60.5909C176.186 62.6212 176.558 64.3636 177.3 65.8182C178.042 67.2576 179.08 68.3636 180.414 69.1364C181.747 69.8939 183.308 70.2727 185.095 70.2727C186.292 70.2727 187.376 70.1061 188.345 69.7727C189.315 69.4242 190.156 68.9167 190.868 68.25C191.58 67.5833 192.118 66.7576 192.482 65.7727L200.164 66.6364C199.679 68.6667 198.755 70.4394 197.391 71.9545C196.042 73.4545 194.315 74.6212 192.209 75.4545C190.103 76.2727 187.694 76.6818 184.982 76.6818ZM206.825 76V41.0909H214.802V46.9091H215.166C215.802 44.8939 216.893 43.3409 218.438 42.25C219.999 41.1439 221.779 40.5909 223.779 40.5909C224.234 40.5909 224.741 40.6136 225.302 40.6591C225.878 40.6894 226.355 40.7424 226.734 40.8182V48.3864C226.385 48.2652 225.832 48.1591 225.075 48.0682C224.332 47.9621 223.613 47.9091 222.916 47.9091C221.416 47.9091 220.067 48.2348 218.87 48.8864C217.688 49.5227 216.757 50.4091 216.075 51.5455C215.393 52.6818 215.052 53.9924 215.052 55.4773V76H206.825Z"/>
</mask>
<path d="M31.8182 50.3182L24.3182 51.1364C24.1061 50.3788 23.7348 49.6667 23.2045 49C22.6894 48.3333 21.9924 47.7955 21.1136 47.3864C20.2348 46.9773 19.1591 46.7727 17.8864 46.7727C16.1742 46.7727 14.7348 47.1439 13.5682 47.8864C12.4167 48.6288 11.8485 49.5909 11.8636 50.7727C11.8485 51.7879 12.2197 52.6136 12.9773 53.25C13.75 53.8864 15.0227 54.4091 16.7955 54.8182L22.75 56.0909C26.053 56.803 28.5076 57.9318 30.1136 59.4773C31.7348 61.0227 32.553 63.0455 32.5682 65.5455C32.553 67.7424 31.9091 69.6818 30.6364 71.3636C29.3788 73.0303 27.6288 74.3333 25.3864 75.2727C23.1439 76.2121 20.5682 76.6818 17.6591 76.6818C13.3864 76.6818 9.94697 75.7879 7.34091 74C4.73485 72.197 3.18182 69.6894 2.68182 66.4773L10.7045 65.7045C11.0682 67.2803 11.8409 68.4697 13.0227 69.2727C14.2045 70.0758 15.7424 70.4773 17.6364 70.4773C19.5909 70.4773 21.1591 70.0758 22.3409 69.2727C23.5379 68.4697 24.1364 67.4773 24.1364 66.2955C24.1364 65.2955 23.75 64.4697 22.9773 63.8182C22.2197 63.1667 21.0379 62.6667 19.4318 62.3182L13.4773 61.0682C10.1288 60.3712 7.65152 59.197 6.04545 57.5455C4.43939 55.8788 3.64394 53.7727 3.65909 51.2273C3.64394 49.0758 4.22727 47.2121 5.40909 45.6364C6.60606 44.0455 8.26515 42.8182 10.3864 41.9545C12.5227 41.0758 14.9848 40.6364 17.7727 40.6364C21.8636 40.6364 25.0833 41.5076 27.4318 43.25C29.7955 44.9924 31.2576 47.3485 31.8182 50.3182ZM45.9168 76L36.0532 41.0909H44.4395L50.5759 65.6364H50.8941L57.1668 41.0909H65.4623L71.735 65.5H72.0759L78.1214 41.0909H86.5305L76.6441 76H68.0759L61.5305 52.4091H61.0532L54.5077 76H45.9168ZM91.6348 76V41.0909H99.862V76H91.6348ZM95.7711 36.1364C94.4681 36.1364 93.3469 35.7045 92.4075 34.8409C91.4681 33.9621 90.9984 32.9091 90.9984 31.6818C90.9984 30.4394 91.4681 29.3864 92.4075 28.5227C93.3469 27.6439 94.4681 27.2045 95.7711 27.2045C97.0893 27.2045 98.2105 27.6439 99.1348 28.5227C100.074 29.3864 100.544 30.4394 100.544 31.6818C100.544 32.9091 100.074 33.9621 99.1348 34.8409C98.2105 35.7045 97.0893 36.1364 95.7711 36.1364ZM125.364 41.0909V47.4545H104.728V41.0909H125.364ZM109.887 76V37.7955C109.887 35.447 110.372 33.4924 111.341 31.9318C112.326 30.3712 113.644 29.2045 115.296 28.4318C116.947 27.6591 118.781 27.2727 120.796 27.2727C122.22 27.2727 123.485 27.3864 124.591 27.6136C125.697 27.8409 126.516 28.0455 127.046 28.2273L125.41 34.5909C125.061 34.4848 124.622 34.3788 124.091 34.2727C123.561 34.1515 122.97 34.0909 122.319 34.0909C120.788 34.0909 119.705 34.4621 119.069 35.2045C118.447 35.9318 118.137 36.9773 118.137 38.3409V76H109.887ZM142.809 76.6136C140.067 76.6136 137.612 75.9091 135.446 74.5C133.279 73.0909 131.567 71.0455 130.309 68.3636C129.052 65.6818 128.423 62.4242 128.423 58.5909C128.423 54.7121 129.059 51.4394 130.332 48.7727C131.62 46.0909 133.355 44.0682 135.537 42.7045C137.718 41.3258 140.15 40.6364 142.832 40.6364C144.878 40.6364 146.559 40.9848 147.878 41.6818C149.196 42.3636 150.241 43.1894 151.014 44.1591C151.787 45.1136 152.385 46.0152 152.809 46.8636H153.15V29.4545H161.4V76H153.309V70.5H152.809C152.385 71.3485 151.771 72.25 150.968 73.2045C150.165 74.1439 149.105 74.947 147.787 75.6136C146.468 76.2803 144.809 76.6136 142.809 76.6136ZM145.105 69.8636C146.847 69.8636 148.332 69.3939 149.559 68.4545C150.787 67.5 151.718 66.1742 152.355 64.4773C152.991 62.7803 153.309 60.803 153.309 58.5455C153.309 56.2879 152.991 54.3258 152.355 52.6591C151.734 50.9924 150.809 49.697 149.582 48.7727C148.37 47.8485 146.878 47.3864 145.105 47.3864C143.271 47.3864 141.741 47.8636 140.514 48.8182C139.287 49.7727 138.362 51.0909 137.741 52.7727C137.12 54.4545 136.809 56.3788 136.809 58.5455C136.809 60.7273 137.12 62.6742 137.741 64.3864C138.378 66.0833 139.309 67.4242 140.537 68.4091C141.779 69.3788 143.302 69.8636 145.105 69.8636ZM184.982 76.6818C181.482 76.6818 178.459 75.9545 175.914 74.5C173.383 73.0303 171.436 70.9545 170.073 68.2727C168.709 65.5758 168.027 62.4015 168.027 58.75C168.027 55.1591 168.709 52.0076 170.073 49.2955C171.452 46.5682 173.376 44.447 175.845 42.9318C178.315 41.4015 181.217 40.6364 184.55 40.6364C186.702 40.6364 188.732 40.9848 190.641 41.6818C192.565 42.3636 194.262 43.4242 195.732 44.8636C197.217 46.303 198.383 48.1364 199.232 50.3636C200.08 52.5758 200.505 55.2121 200.505 58.2727V60.7955H171.891V55.25H192.618C192.603 53.6742 192.262 52.2727 191.595 51.0455C190.929 49.803 189.997 48.8258 188.8 48.1136C187.618 47.4015 186.239 47.0455 184.664 47.0455C182.982 47.0455 181.505 47.4545 180.232 48.2727C178.959 49.0758 177.967 50.1364 177.255 51.4545C176.558 52.7576 176.202 54.1894 176.186 55.75V60.5909C176.186 62.6212 176.558 64.3636 177.3 65.8182C178.042 67.2576 179.08 68.3636 180.414 69.1364C181.747 69.8939 183.308 70.2727 185.095 70.2727C186.292 70.2727 187.376 70.1061 188.345 69.7727C189.315 69.4242 190.156 68.9167 190.868 68.25C191.58 67.5833 192.118 66.7576 192.482 65.7727L200.164 66.6364C199.679 68.6667 198.755 70.4394 197.391 71.9545C196.042 73.4545 194.315 74.6212 192.209 75.4545C190.103 76.2727 187.694 76.6818 184.982 76.6818ZM206.825 76V41.0909H214.802V46.9091H215.166C215.802 44.8939 216.893 43.3409 218.438 42.25C219.999 41.1439 221.779 40.5909 223.779 40.5909C224.234 40.5909 224.741 40.6136 225.302 40.6591C225.878 40.6894 226.355 40.7424 226.734 40.8182V48.3864C226.385 48.2652 225.832 48.1591 225.075 48.0682C224.332 47.9621 223.613 47.9091 222.916 47.9091C221.416 47.9091 220.067 48.2348 218.87 48.8864C217.688 49.5227 216.757 50.4091 216.075 51.5455C215.393 52.6818 215.052 53.9924 215.052 55.4773V76H206.825Z" fill="black"/>
<path d="M31.8182 50.3182L31.9266 51.3123L33.0014 51.195L32.8008 50.1327L31.8182 50.3182ZM24.3182 51.1364L23.3552 51.406L23.5838 52.2224L24.4266 52.1305L24.3182 51.1364ZM23.2045 49L22.4132 49.6115L22.4219 49.6225L23.2045 49ZM21.1136 47.3864L21.5357 46.4798L21.5357 46.4798L21.1136 47.3864ZM13.5682 47.8864L13.0313 47.0427L13.0263 47.0459L13.5682 47.8864ZM11.8636 50.7727L12.8635 50.7877L12.8637 50.7738L12.8636 50.7599L11.8636 50.7727ZM12.9773 53.25L12.3341 54.0157L12.3416 54.0219L12.9773 53.25ZM16.7955 54.8182L16.5706 55.7926L16.5785 55.7944L16.5864 55.7961L16.7955 54.8182ZM22.75 56.0909L22.9608 55.1134L22.959 55.113L22.75 56.0909ZM30.1136 59.4773L29.4203 60.1979L29.4236 60.2011L30.1136 59.4773ZM32.5682 65.5455L33.5682 65.5524L33.5682 65.5394L32.5682 65.5455ZM30.6364 71.3636L29.839 70.7602L29.8381 70.7613L30.6364 71.3636ZM25.3864 75.2727L25.7727 76.1951L25.3864 75.2727ZM7.34091 74L6.77194 74.8224L6.77519 74.8246L7.34091 74ZM2.68182 66.4773L2.58594 65.4819L1.53065 65.5835L1.69372 66.6311L2.68182 66.4773ZM10.7045 65.7045L11.6789 65.4797L11.4817 64.6251L10.6087 64.7092L10.7045 65.7045ZM13.0227 69.2727L13.5847 68.4456L13.5847 68.4456L13.0227 69.2727ZM22.3409 69.2727L21.7838 68.4423L21.7789 68.4456L22.3409 69.2727ZM22.9773 63.8182L22.3252 64.5764L22.3327 64.5827L22.9773 63.8182ZM19.4318 62.3182L19.6439 61.3409L19.6373 61.3395L19.4318 62.3182ZM13.4773 61.0682L13.6827 60.0895L13.6811 60.0892L13.4773 61.0682ZM6.04545 57.5455L5.32537 58.2394L5.32855 58.2426L6.04545 57.5455ZM3.65909 51.2273L4.65916 51.2332L4.65907 51.2202L3.65909 51.2273ZM5.40909 45.6364L4.61 45.0351L4.60909 45.0364L5.40909 45.6364ZM10.3864 41.9545L10.7635 42.8807L10.7668 42.8794L10.3864 41.9545ZM27.4318 43.25L26.836 44.0531L26.8384 44.0549L27.4318 43.25ZM31.7097 49.3241L24.2097 50.1423L24.4266 52.1305L31.9266 51.3123L31.7097 49.3241ZM25.2811 50.8667C25.0302 49.9704 24.5936 49.1398 23.9871 48.3775L22.4219 49.6225C22.8761 50.1935 23.182 50.7872 23.3552 51.406L25.2811 50.8667ZM23.9958 48.3886C23.3692 47.5776 22.5374 46.9461 21.5357 46.4798L20.6916 48.2929C21.4474 48.6448 22.0096 49.0891 22.4133 49.6114L23.9958 48.3886ZM21.5357 46.4798C20.4901 45.9931 19.2612 45.7727 17.8864 45.7727V47.7727C19.0569 47.7727 19.9796 47.9615 20.6916 48.2929L21.5357 46.4798ZM17.8864 45.7727C16.0293 45.7727 14.3928 46.1763 13.0313 47.0427L14.1051 48.73C15.0769 48.1116 16.3191 47.7727 17.8864 47.7727V45.7727ZM13.0263 47.0459C11.6395 47.94 10.8434 49.1996 10.8637 50.7855L12.8636 50.7599C12.8536 49.9823 13.1938 49.3176 14.1101 48.7268L13.0263 47.0459ZM10.8637 50.7578C10.8442 52.0644 11.3394 53.1802 12.3341 54.0157L13.6205 52.4843C13.1 52.0471 12.8527 51.5113 12.8635 50.7877L10.8637 50.7578ZM12.3416 54.0219C13.2953 54.8074 14.7512 55.3727 16.5706 55.7926L17.0203 53.8438C15.2943 53.4455 14.2047 52.9654 13.613 52.4781L12.3416 54.0219ZM16.5864 55.7961L22.541 57.0688L22.959 55.113L17.0045 53.8403L16.5864 55.7961ZM22.5392 57.0684C25.7476 57.7602 28.0002 58.8314 29.4203 60.1978L30.807 58.7567C29.0149 57.0322 26.3585 55.8459 22.9608 55.1134L22.5392 57.0684ZM29.4236 60.2011C30.8246 61.5366 31.5545 63.2882 31.5682 65.5515L33.5682 65.5394C33.5516 62.8027 32.6451 60.5088 30.8036 58.7535L29.4236 60.2011ZM31.5682 65.5386C31.5545 67.5297 30.976 69.2577 29.839 70.7602L31.4338 71.9671C32.8422 70.1059 33.5516 67.9552 33.5682 65.5524L31.5682 65.5386ZM29.8381 70.7613C28.7035 72.265 27.1064 73.468 25 74.3504L25.7727 76.1951C28.1512 75.1987 30.0541 73.7956 31.4346 71.966L29.8381 70.7613ZM25 74.3504C22.9015 75.2295 20.4611 75.6818 17.6591 75.6818V77.6818C20.6753 77.6818 23.3864 77.1947 25.7727 76.1951L25 74.3504ZM17.6591 75.6818C13.5188 75.6818 10.2968 74.8152 7.90662 73.1754L6.77519 74.8246C9.59715 76.7606 13.2539 77.6818 17.6591 77.6818V75.6818ZM7.90987 73.1776C5.53575 71.5351 4.12898 69.2726 3.66992 66.3235L1.69372 66.6311C2.23465 70.1062 3.93395 72.8589 6.77195 74.8224L7.90987 73.1776ZM2.77769 67.4727L10.8004 66.6999L10.6087 64.7092L2.58594 65.4819L2.77769 67.4727ZM9.73015 65.9294C10.1424 67.7158 11.0426 69.1363 12.4607 70.0999L13.5847 68.4456C12.6392 67.8031 11.994 66.8448 11.6789 65.4797L9.73015 65.9294ZM12.4607 70.0999C13.8545 71.0469 15.6062 71.4773 17.6364 71.4773V69.4773C15.8787 69.4773 14.5546 69.1046 13.5847 68.4456L12.4607 70.0999ZM17.6364 71.4773C19.7196 71.4773 21.5045 71.0501 22.9029 70.0999L21.7789 68.4456C20.8137 69.1015 19.4622 69.4773 17.6364 69.4773V71.4773ZM22.898 70.1032C24.3024 69.161 25.1364 67.8863 25.1364 66.2955H23.1364C23.1364 67.0683 22.7734 67.7784 21.7838 68.4423L22.898 70.1032ZM25.1364 66.2955C25.1364 64.997 24.6172 63.8928 23.6219 63.0537L22.3327 64.5827C22.8828 65.0466 23.1364 65.5939 23.1364 66.2955H25.1364ZM23.6293 63.06C22.6891 62.2514 21.3195 61.7045 19.6439 61.3409L19.2198 63.2954C20.7563 63.6288 21.7503 64.0819 22.3252 64.5764L23.6293 63.06ZM19.6373 61.3395L13.6827 60.0895L13.2718 62.0468L19.2264 63.2968L19.6373 61.3395ZM13.6811 60.0892C10.4386 59.4143 8.17702 58.303 6.76236 56.8483L5.32855 58.2426C7.12601 60.091 9.81899 61.3282 13.2735 62.0472L13.6811 60.0892ZM6.76553 56.8516C5.35933 55.3923 4.6453 53.5463 4.65907 51.2332L2.65911 51.2213C2.64257 53.9992 3.51945 56.3653 5.32538 58.2393L6.76553 56.8516ZM4.65907 51.2202C4.6453 49.2661 5.17083 47.6207 6.20909 46.2364L4.60909 45.0364C3.28372 46.8035 2.64257 48.8854 2.65912 51.2343L4.65907 51.2202ZM6.20818 46.2376C7.28094 44.8118 8.78408 43.6866 10.7635 42.8807L10.0093 41.0284C7.74622 41.9498 5.93118 43.2792 4.61001 45.0351L6.20818 46.2376ZM10.7668 42.8794C12.7603 42.0593 15.089 41.6364 17.7727 41.6364V39.6364C14.8807 39.6364 12.2852 40.0922 10.0059 41.0297L10.7668 42.8794ZM17.7727 41.6364C21.7325 41.6364 24.7166 42.4806 26.836 44.0531L28.0277 42.4469C25.4501 40.5345 21.9948 39.6364 17.7727 39.6364V41.6364ZM26.8384 44.0549C28.9923 45.6427 30.3203 47.7742 30.8355 50.5037L32.8008 50.1327C32.1949 46.9228 30.5986 44.3422 28.0252 42.4451L26.8384 44.0549ZM45.9168 76L44.9545 76.2719L45.1602 77H45.9168V76ZM36.0532 41.0909V40.0909H34.7315L35.0909 41.3628L36.0532 41.0909ZM44.4395 41.0909L45.4097 40.8484L45.2203 40.0909H44.4395V41.0909ZM50.5759 65.6364L49.6058 65.8789L49.7951 66.6364H50.5759V65.6364ZM50.8941 65.6364V66.6364H51.6707L51.863 65.884L50.8941 65.6364ZM57.1668 41.0909V40.0909H56.3902L56.198 40.8433L57.1668 41.0909ZM65.4623 41.0909L66.4308 40.842L66.2378 40.0909H65.4623V41.0909ZM71.735 65.5L70.7665 65.7489L70.9595 66.5H71.735V65.5ZM72.0759 65.5V66.5H72.8585L73.0466 65.7404L72.0759 65.5ZM78.1214 41.0909V40.0909H77.3388L77.1507 40.8505L78.1214 41.0909ZM86.5305 41.0909L87.4926 41.3634L87.853 40.0909H86.5305V41.0909ZM76.6441 76V77H77.4002L77.6063 76.2725L76.6441 76ZM68.0759 76L67.1123 76.2674L67.3156 77H68.0759V76ZM61.5305 52.4091L62.4941 52.1417L62.2908 51.4091H61.5305V52.4091ZM61.0532 52.4091V51.4091H60.2929L60.0896 52.1417L61.0532 52.4091ZM54.5077 76V77H55.268L55.4713 76.2674L54.5077 76ZM46.8791 75.7281L37.0155 40.819L35.0909 41.3628L44.9545 76.2719L46.8791 75.7281ZM36.0532 42.0909H44.4395V40.0909H36.0532V42.0909ZM43.4694 41.3334L49.6058 65.8789L51.5461 65.3938L45.4097 40.8484L43.4694 41.3334ZM50.5759 66.6364H50.8941V64.6364H50.5759V66.6364ZM51.863 65.884L58.1357 41.3385L56.198 40.8433L49.9252 65.3888L51.863 65.884ZM57.1668 42.0909H65.4623V40.0909H57.1668V42.0909ZM64.4937 41.3398L70.7665 65.7489L72.7035 65.2511L66.4308 40.842L64.4937 41.3398ZM71.735 66.5H72.0759V64.5H71.735V66.5ZM73.0466 65.7404L79.092 41.3313L77.1507 40.8505L71.1052 65.2596L73.0466 65.7404ZM78.1214 42.0909H86.5305V40.0909H78.1214V42.0909ZM85.5683 40.8184L75.6819 75.7275L77.6063 76.2725L87.4926 41.3634L85.5683 40.8184ZM76.6441 75H68.0759V77H76.6441V75ZM69.0395 75.7326L62.4941 52.1417L60.5669 52.6764L67.1123 76.2674L69.0395 75.7326ZM61.5305 51.4091H61.0532V53.4091H61.5305V51.4091ZM60.0896 52.1417L53.5441 75.7326L55.4713 76.2674L62.0168 52.6764L60.0896 52.1417ZM54.5077 75H45.9168V77H54.5077V75ZM91.6348 76H90.6348V77H91.6348V76ZM91.6348 41.0909V40.0909H90.6348V41.0909H91.6348ZM99.862 41.0909H100.862V40.0909H99.862V41.0909ZM99.862 76V77H100.862V76H99.862ZM92.4075 34.8409L91.7243 35.5712L91.7307 35.5771L92.4075 34.8409ZM92.4075 28.5227L93.0843 29.2589L93.0907 29.253L92.4075 28.5227ZM99.1348 28.5227L98.4457 29.2474L98.4518 29.2532L98.458 29.2589L99.1348 28.5227ZM99.1348 34.8409L99.8175 35.5716L99.8179 35.5712L99.1348 34.8409ZM92.6348 76V41.0909H90.6348V76H92.6348ZM91.6348 42.0909H99.862V40.0909H91.6348V42.0909ZM98.862 41.0909V76H100.862V41.0909H98.862ZM99.862 75H91.6348V77H99.862V75ZM95.7711 35.1364C94.7129 35.1364 93.8349 34.7948 93.0843 34.1047L91.7307 35.5771C92.8589 36.6143 94.2233 37.1364 95.7711 37.1364V35.1364ZM93.0907 34.1106C92.3424 33.4107 91.9984 32.6177 91.9984 31.6818H89.9984C89.9984 33.2005 90.5938 34.5135 91.7243 35.5712L93.0907 34.1106ZM91.9984 31.6818C91.9984 30.7277 92.3446 29.939 93.0843 29.2589L91.7307 27.7866C90.5917 28.8337 89.9984 30.1511 89.9984 31.6818H91.9984ZM93.0907 29.253C93.8421 28.55 94.7181 28.2045 95.7711 28.2045V26.2045C94.2181 26.2045 92.8517 26.7379 91.7243 27.7925L93.0907 29.253ZM95.7711 28.2045C96.8424 28.2045 97.7142 28.5519 98.4457 29.2474L99.8238 27.798C98.7069 26.736 97.3363 26.2045 95.7711 26.2045V28.2045ZM98.458 29.2589C99.1977 29.939 99.5439 30.7277 99.5439 31.6818H101.544C101.544 30.1511 100.951 28.8337 99.8116 27.7866L98.458 29.2589ZM99.5439 31.6818C99.5439 32.6177 99.1998 33.4107 98.4516 34.1106L99.8179 35.5712C100.948 34.5135 101.544 33.2005 101.544 31.6818H99.5439ZM98.452 34.1103C97.7214 34.7929 96.8476 35.1364 95.7711 35.1364V37.1364C97.331 37.1364 98.6996 36.6161 99.8175 35.5716L98.452 34.1103ZM125.364 41.0909H126.364V40.0909H125.364V41.0909ZM125.364 47.4545V48.4545H126.364V47.4545H125.364ZM104.728 47.4545H103.728V48.4545H104.728V47.4545ZM104.728 41.0909V40.0909H103.728V41.0909H104.728ZM109.887 76H108.887V77H109.887V76ZM111.341 31.9318L110.496 31.3981L110.492 31.404L111.341 31.9318ZM115.296 28.4318L114.872 27.5261L114.872 27.5261L115.296 28.4318ZM124.591 27.6136L124.39 28.5932L124.39 28.5932L124.591 27.6136ZM127.046 28.2273L128.014 28.4763L128.245 27.5811L127.37 27.2813L127.046 28.2273ZM125.41 34.5909L125.118 35.5476L126.118 35.8518L126.378 34.8399L125.41 34.5909ZM124.091 34.2727L123.869 35.2476L123.882 35.2506L123.895 35.2533L124.091 34.2727ZM119.069 35.2045L118.309 34.5538L118.308 34.5551L119.069 35.2045ZM118.137 76V77H119.137V76H118.137ZM124.364 41.0909V47.4545H126.364V41.0909H124.364ZM125.364 46.4545H104.728V48.4545H125.364V46.4545ZM105.728 47.4545V41.0909H103.728V47.4545H105.728ZM104.728 42.0909H125.364V40.0909H104.728V42.0909ZM110.887 76V37.7955H108.887V76H110.887ZM110.887 37.7955C110.887 35.5823 111.343 33.8232 112.191 32.4596L110.492 31.404C109.4 33.1616 108.887 35.3117 108.887 37.7955H110.887ZM112.187 32.4655C113.071 31.0647 114.244 30.0282 115.72 29.3376L114.872 27.5261C113.045 28.3809 111.581 29.6778 110.496 31.3981L112.187 32.4655ZM115.72 29.3376C117.225 28.6332 118.912 28.2727 120.796 28.2727V26.2727C118.65 26.2727 116.67 26.685 114.872 27.5261L115.72 29.3376ZM120.796 28.2727C122.169 28.2727 123.365 28.3825 124.39 28.5932L124.793 26.6341C123.606 26.3902 122.271 26.2727 120.796 26.2727V28.2727ZM124.39 28.5932C125.487 28.8186 126.254 29.013 126.722 29.1732L127.37 27.2813C126.777 27.078 125.908 26.8632 124.793 26.6341L124.39 28.5932ZM126.077 27.9782L124.441 34.3419L126.378 34.8399L128.014 28.4763L126.077 27.9782ZM125.701 33.6342C125.31 33.5153 124.836 33.4019 124.287 33.2921L123.895 35.2533C124.407 35.3557 124.812 35.4544 125.118 35.5476L125.701 33.6342ZM124.314 33.2979C123.698 33.157 123.031 33.0909 122.319 33.0909V35.0909C122.909 35.0909 123.424 35.146 123.869 35.2476L124.314 33.2979ZM122.319 33.0909C120.661 33.0909 119.221 33.4897 118.309 34.5538L119.828 35.8553C120.189 35.4345 120.916 35.0909 122.319 35.0909V33.0909ZM118.308 34.5551C117.478 35.5271 117.137 36.839 117.137 38.3409H119.137C119.137 37.1155 119.417 36.3365 119.829 35.854L118.308 34.5551ZM117.137 38.3409V76H119.137V38.3409H117.137ZM118.137 75H109.887V77H118.137V75ZM135.446 74.5L134.9 75.3383L134.9 75.3383L135.446 74.5ZM130.309 68.3636L131.215 67.9391L131.215 67.9391L130.309 68.3636ZM130.332 48.7727L129.431 48.3398L129.43 48.342L130.332 48.7727ZM135.537 42.7045L136.067 43.5526L136.071 43.5499L135.537 42.7045ZM147.878 41.6818L147.41 42.5659L147.418 42.57L147.878 41.6818ZM151.014 44.1591L150.232 44.7823L150.237 44.7883L151.014 44.1591ZM152.809 46.8636L151.915 47.3108L152.191 47.8636H152.809V46.8636ZM153.15 46.8636V47.8636H154.15V46.8636H153.15ZM153.15 29.4545V28.4545H152.15V29.4545H153.15ZM161.4 29.4545H162.4V28.4545H161.4V29.4545ZM161.4 76V77H162.4V76H161.4ZM153.309 76H152.309V77H153.309V76ZM153.309 70.5H154.309V69.5H153.309V70.5ZM152.809 70.5V69.5H152.191L151.915 70.0528L152.809 70.5ZM150.968 73.2045L151.729 73.8543L151.734 73.8483L150.968 73.2045ZM147.787 75.6136L148.238 76.506L148.238 76.506L147.787 75.6136ZM149.559 68.4545L150.167 69.2486L150.173 69.2439L149.559 68.4545ZM152.355 64.4773L151.418 64.1261L151.418 64.1261L152.355 64.4773ZM152.355 52.6591L151.418 53.0084L151.421 53.0158L152.355 52.6591ZM149.582 48.7727L148.976 49.5679L148.98 49.5715L149.582 48.7727ZM140.514 48.8182L139.9 48.0288L139.9 48.0288L140.514 48.8182ZM137.741 52.7727L136.803 52.4262L136.803 52.4262L137.741 52.7727ZM137.741 64.3864L136.801 64.7275L136.805 64.7375L137.741 64.3864ZM140.537 68.4091L139.911 69.1891L139.921 69.1974L140.537 68.4091ZM142.809 75.6136C140.248 75.6136 137.985 74.9587 135.991 73.6617L134.9 75.3383C137.24 76.8595 139.886 77.6136 142.809 77.6136V75.6136ZM135.991 73.6617C134.002 72.3684 132.405 70.4773 131.215 67.9391L129.404 68.7882C130.729 71.6136 132.556 73.8134 134.9 75.3383L135.991 73.6617ZM131.215 67.9391C130.035 65.4232 129.423 62.319 129.423 58.5909H127.423C127.423 62.5295 128.069 65.9405 129.404 68.7882L131.215 67.9391ZM129.423 58.5909C129.423 54.8165 130.043 51.7004 131.235 49.2035L129.43 48.342C128.076 51.1784 127.423 54.6077 127.423 58.5909H129.423ZM131.233 49.2056C132.452 46.6673 134.069 44.8009 136.067 43.5525L135.007 41.8565C132.64 43.3355 130.787 45.5145 129.431 48.3398L131.233 49.2056ZM136.071 43.5499C138.086 42.2762 140.332 41.6364 142.832 41.6364V39.6364C139.969 39.6364 137.351 40.3753 135.002 41.8592L136.071 43.5499ZM142.832 41.6364C144.772 41.6364 146.279 41.968 147.41 42.5659L148.345 40.7978C146.839 40.0017 144.983 39.6364 142.832 39.6364V41.6364ZM147.418 42.57C148.635 43.1997 149.562 43.9421 150.232 44.7823L151.796 43.5359C150.92 42.4367 149.756 41.5276 148.337 40.7936L147.418 42.57ZM150.237 44.7883C150.976 45.7021 151.531 46.5428 151.915 47.3108L153.704 46.4164C153.239 45.4875 152.597 44.5252 151.791 43.5299L150.237 44.7883ZM152.809 47.8636H153.15V45.8636H152.809V47.8636ZM154.15 46.8636V29.4545H152.15V46.8636H154.15ZM153.15 30.4545H161.4V28.4545H153.15V30.4545ZM160.4 29.4545V76H162.4V29.4545H160.4ZM161.4 75H153.309V77H161.4V75ZM154.309 76V70.5H152.309V76H154.309ZM153.309 69.5H152.809V71.5H153.309V69.5ZM151.915 70.0528C151.535 70.8129 150.97 71.6488 150.203 72.5608L151.734 73.8483C152.572 72.8512 153.235 71.8841 153.704 70.9472L151.915 70.0528ZM150.208 72.5548C149.506 73.3761 148.558 74.1028 147.335 74.7213L148.238 76.506C149.651 75.7911 150.825 74.9118 151.729 73.8543L150.208 72.5548ZM147.335 74.7213C146.198 75.2967 144.705 75.6136 142.809 75.6136V77.6136C144.913 77.6136 146.739 77.2639 148.238 76.506L147.335 74.7213ZM145.105 70.8636C147.038 70.8636 148.743 70.3384 150.167 69.2486L148.952 67.6605C147.921 68.4495 146.657 68.8636 145.105 68.8636V70.8636ZM150.173 69.2439C151.569 68.1582 152.601 66.6693 153.291 64.8284L151.418 64.1261C150.836 65.6792 150.004 66.8418 148.945 67.6652L150.173 69.2439ZM153.291 64.8284C153.978 62.9954 154.309 60.8946 154.309 58.5455H152.309C152.309 60.7115 152.004 62.5652 151.418 64.1261L153.291 64.8284ZM154.309 58.5455C154.309 56.197 153.979 54.1087 153.289 52.3024L151.421 53.0158C152.004 54.5428 152.309 56.3788 152.309 58.5455H154.309ZM153.292 52.3098C152.615 50.4932 151.586 49.0301 150.184 47.9739L148.98 49.5715C150.033 50.3638 150.852 51.4917 151.418 53.0083L153.292 52.3098ZM150.188 47.9775C148.775 46.8995 147.059 46.3864 145.105 46.3864V48.3864C146.696 48.3864 147.965 48.7974 148.976 49.5679L150.188 47.9775ZM145.105 46.3864C143.09 46.3864 141.333 46.9144 139.9 48.0288L141.128 49.6075C142.149 48.8129 143.452 48.3864 145.105 48.3864V46.3864ZM139.9 48.0288C138.504 49.1145 137.479 50.5968 136.803 52.4262L138.679 53.1192C139.246 51.585 140.069 50.4309 141.128 49.6075L139.9 48.0288ZM136.803 52.4262C136.133 54.2394 135.809 56.2845 135.809 58.5455H137.809C137.809 56.4731 138.106 54.6697 138.679 53.1192L136.803 52.4262ZM135.809 58.5455C135.809 60.8212 136.133 62.8867 136.801 64.7274L138.681 64.0453C138.107 62.4617 137.809 60.6334 137.809 58.5455H135.809ZM136.805 64.7375C137.495 66.5767 138.523 68.0756 139.911 69.189L141.162 67.6292C140.095 66.7729 139.26 65.5899 138.677 64.0352L136.805 64.7375ZM139.921 69.1974C141.364 70.3237 143.112 70.8636 145.105 70.8636V68.8636C143.491 68.8636 142.194 68.4339 141.152 67.6208L139.921 69.1974ZM175.914 74.5L175.411 75.3647L175.418 75.3682L175.914 74.5ZM170.073 68.2727L169.18 68.7239L169.181 68.726L170.073 68.2727ZM170.073 49.2955L169.18 48.8443L169.179 48.8462L170.073 49.2955ZM175.845 42.9318L176.368 43.7842L176.372 43.7819L175.845 42.9318ZM190.641 41.6818L190.298 42.6212L190.307 42.6244L190.641 41.6818ZM195.732 44.8636L195.032 45.5781L195.036 45.5816L195.732 44.8636ZM199.232 50.3636L198.297 50.7196L198.298 50.7218L199.232 50.3636ZM200.505 60.7955V61.7955H201.505V60.7955H200.505ZM171.891 60.7955H170.891V61.7955H171.891V60.7955ZM171.891 55.25V54.25H170.891V55.25H171.891ZM192.618 55.25V56.25H193.628L193.618 55.2404L192.618 55.25ZM191.595 51.0455L190.714 51.5183L190.717 51.5228L191.595 51.0455ZM188.8 48.1136L188.284 48.9702L188.289 48.973L188.8 48.1136ZM180.232 48.2727L180.765 49.1185L180.773 49.1139L180.232 48.2727ZM177.255 51.4545L176.375 50.9792L176.373 50.9829L177.255 51.4545ZM176.186 55.75L175.186 55.7403V55.75H176.186ZM177.3 65.8182L176.409 66.2728L176.411 66.2766L177.3 65.8182ZM180.414 69.1364L179.912 70.0016L179.92 70.0058L180.414 69.1364ZM188.345 69.7727L188.671 70.7185L188.684 70.7138L188.345 69.7727ZM190.868 68.25L190.185 67.52L190.868 68.25ZM192.482 65.7727L192.594 64.779L191.815 64.6915L191.544 65.4264L192.482 65.7727ZM200.164 66.6364L201.136 66.8686L201.399 65.7689L200.275 65.6426L200.164 66.6364ZM197.391 71.9545L196.648 71.2856L196.647 71.286L197.391 71.9545ZM192.209 75.4545L192.571 76.3867L192.577 76.3844L192.209 75.4545ZM184.982 75.6818C181.622 75.6818 178.777 74.9846 176.41 73.6318L175.418 75.3682C178.141 76.9245 181.342 77.6818 184.982 77.6818V75.6818ZM176.416 73.6353C174.057 72.2652 172.243 70.3346 170.964 67.8195L169.181 68.726C170.63 71.5745 172.71 73.7954 175.411 75.3647L176.416 73.6353ZM170.965 67.8215C169.685 65.2906 169.027 62.277 169.027 58.75H167.027C167.027 62.526 167.733 65.8609 169.18 68.7239L170.965 67.8215ZM169.027 58.75C169.027 55.2867 169.684 52.2941 170.966 49.7447L169.179 48.8462C167.734 51.7211 167.027 55.0315 167.027 58.75H169.027ZM170.965 49.7466C172.265 47.1753 174.065 45.197 176.368 43.7842L175.323 42.0794C172.686 43.6969 170.638 45.9611 169.18 48.8443L170.965 49.7466ZM176.372 43.7819C178.661 42.3634 181.375 41.6364 184.55 41.6364V39.6364C181.059 39.6364 177.969 40.4397 175.319 42.0818L176.372 43.7819ZM184.55 41.6364C186.591 41.6364 188.505 41.9666 190.298 42.6212L190.984 40.7425C188.959 40.0031 186.812 39.6364 184.55 39.6364V41.6364ZM190.307 42.6244C192.093 43.2573 193.665 44.2396 195.032 45.5781L196.432 44.1492C194.859 42.6089 193.037 41.47 190.975 40.7392L190.307 42.6244ZM195.036 45.5816C196.401 46.9048 197.493 48.6082 198.297 50.7196L200.166 50.0076C199.274 47.6645 198.033 45.7012 196.428 44.1456L195.036 45.5816ZM198.298 50.7218C199.092 52.7916 199.505 55.3005 199.505 58.2727H201.505C201.505 55.1237 201.069 52.3599 200.165 50.0055L198.298 50.7218ZM199.505 58.2727V60.7955H201.505V58.2727H199.505ZM200.505 59.7955H171.891V61.7955H200.505V59.7955ZM172.891 60.7955V55.25H170.891V60.7955H172.891ZM171.891 56.25H192.618V54.25H171.891V56.25ZM193.618 55.2404C193.602 53.5224 193.228 51.9566 192.474 50.5681L190.717 51.5228C191.296 52.5888 191.604 53.8261 191.618 55.2596L193.618 55.2404ZM192.477 50.5726C191.725 49.1722 190.666 48.0604 189.311 47.2542L188.289 48.973C189.328 49.5911 190.132 50.4338 190.714 51.5183L192.477 50.5726ZM189.316 47.2571C187.957 46.4384 186.395 46.0455 184.664 46.0455V48.0455C186.084 48.0455 187.279 48.3646 188.284 48.9702L189.316 47.2571ZM184.664 46.0455C182.812 46.0455 181.143 46.4983 179.691 47.4315L180.773 49.1139C181.866 48.4108 183.151 48.0455 184.664 48.0455V46.0455ZM179.698 47.427C178.281 48.3213 177.169 49.5092 176.375 50.9792L178.134 51.9298C178.764 50.7635 179.637 49.8302 180.765 49.1185L179.698 47.427ZM176.373 50.9829C175.595 52.4361 175.203 54.0278 175.186 55.7403L177.186 55.7597C177.2 54.351 177.52 53.079 178.136 51.9262L176.373 50.9829ZM175.186 55.75V60.5909H177.186V55.75H175.186ZM175.186 60.5909C175.186 62.7416 175.58 64.6474 176.409 66.2728L178.191 65.3636C177.535 64.0799 177.186 62.5008 177.186 60.5909H175.186ZM176.411 66.2766C177.237 67.8767 178.405 69.128 179.912 70.0016L180.915 68.2712C179.756 67.5992 178.848 66.6384 178.189 65.3598L176.411 66.2766ZM179.92 70.0058C181.427 70.8622 183.163 71.2727 185.095 71.2727V69.2727C183.452 69.2727 182.067 68.9257 180.908 68.2669L179.92 70.0058ZM185.095 71.2727C186.385 71.2727 187.58 71.0932 188.671 70.7184L188.02 68.827C187.171 69.119 186.2 69.2727 185.095 69.2727V71.2727ZM188.684 70.7138C189.774 70.3219 190.734 69.745 191.552 68.98L190.185 67.52C189.578 68.0883 188.856 68.5266 188.007 68.8317L188.684 70.7138ZM191.552 68.98C192.386 68.199 193.007 67.2385 193.42 66.1191L191.544 65.4264C191.23 66.2766 190.775 66.9676 190.185 67.52L191.552 68.98ZM192.37 66.7665L200.052 67.6301L200.275 65.6426L192.594 64.779L192.37 66.7665ZM199.191 66.4041C198.744 68.276 197.897 69.8976 196.648 71.2856L198.134 72.6235C199.612 70.9812 200.614 69.0573 201.136 66.8686L199.191 66.4041ZM196.647 71.286C195.414 72.6576 193.821 73.7412 191.841 74.5247L192.577 76.3844C194.809 75.5012 196.671 74.2515 198.135 72.6231L196.647 71.286ZM191.847 74.5224C189.877 75.2877 187.594 75.6818 184.982 75.6818V77.6818C187.794 77.6818 190.329 77.2577 192.571 76.3867L191.847 74.5224ZM206.825 76H205.825V77H206.825V76ZM206.825 41.0909V40.0909H205.825V41.0909H206.825ZM214.802 41.0909H215.802V40.0909H214.802V41.0909ZM214.802 46.9091H213.802V47.9091H214.802V46.9091ZM215.166 46.9091V47.9091H215.899L216.119 47.2102L215.166 46.9091ZM218.438 42.25L219.015 43.067L219.017 43.0659L218.438 42.25ZM225.302 40.6591L225.221 41.6558L225.235 41.657L225.249 41.6577L225.302 40.6591ZM226.734 40.8182H227.734V39.9984L226.93 39.8376L226.734 40.8182ZM226.734 48.3864L226.405 49.3309L227.734 49.793V48.3864H226.734ZM225.075 48.0682L224.933 49.0581L224.944 49.0597L224.956 49.0611L225.075 48.0682ZM218.87 48.8864L219.344 49.7668L219.348 49.7647L218.87 48.8864ZM215.052 76V77H216.052V76H215.052ZM207.825 76V41.0909H205.825V76H207.825ZM206.825 42.0909H214.802V40.0909H206.825V42.0909ZM213.802 41.0909V46.9091H215.802V41.0909H213.802ZM214.802 47.9091H215.166V45.9091H214.802V47.9091ZM216.119 47.2102C216.698 45.3779 217.669 44.0171 219.015 43.067L217.862 41.433C216.117 42.6648 214.906 44.41 214.212 46.608L216.119 47.2102ZM219.017 43.0659C220.4 42.0853 221.976 41.5909 223.779 41.5909V39.5909C221.582 39.5909 219.598 40.2026 217.86 41.4341L219.017 43.0659ZM223.779 41.5909C224.201 41.5909 224.681 41.6121 225.221 41.6558L225.383 39.6624C224.801 39.6152 224.266 39.5909 223.779 39.5909V41.5909ZM225.249 41.6577C225.798 41.6866 226.223 41.7359 226.538 41.7988L226.93 39.8376C226.487 39.749 225.958 39.6922 225.355 39.6605L225.249 41.6577ZM225.734 40.8182V48.3864H227.734V40.8182H225.734ZM227.062 47.4419C226.607 47.2834 225.964 47.1677 225.194 47.0753L224.956 49.0611C225.701 49.1505 226.164 49.2469 226.405 49.3309L227.062 47.4419ZM225.216 47.0782C224.43 46.966 223.663 46.9091 222.916 46.9091V48.9091C223.562 48.9091 224.234 48.9583 224.933 49.0581L225.216 47.0782ZM222.916 46.9091C221.266 46.9091 219.75 47.2688 218.392 48.008L219.348 49.7647C220.384 49.2008 221.566 48.9091 222.916 48.9091V46.9091ZM218.396 48.0059C217.058 48.7264 215.993 49.7383 215.217 51.031L216.932 52.0599C217.52 51.0799 218.319 50.3191 219.344 49.7668L218.396 48.0059ZM215.217 51.031C214.431 52.3409 214.052 53.8336 214.052 55.4773H216.052C216.052 54.1513 216.355 53.0228 216.932 52.0599L215.217 51.031ZM214.052 55.4773V76H216.052V55.4773H214.052ZM215.052 75H206.825V77H215.052V75Z" fill="black" mask="url(#path-1-outside-1_827_2)"/>
<path d="M93.3949 23.1331C92.1583 23.6789 83.6207 14.4998 81.2363 10.1875C78.6529 5.51542 79.7615 3.4715 81.9814 2.49167C84.2014 1.51184 86.6919 1.96714 89.2753 6.63924C91.6864 11 94.4187 22.6812 93.3949 23.1331Z" fill="black"/>
<path d="M86.6322 27.7277C86.1841 28.7408 74.7248 27.4401 69.5925 25.6277C64.6597 23.8858 64.0114 21.9031 64.8391 20.032C65.6669 18.1609 67.6572 17.1099 72.59 18.8519C77.2566 20.4998 87.0804 26.7147 86.6322 27.7277Z" fill="black"/>
<path d="M101.892 22.0575C101.006 21.7488 101.895 11.2633 103.921 6.61814C105.862 2.16921 108.21 1.61631 110.467 2.40212C112.723 3.18793 114.034 5.01487 112.093 9.4638C110.507 13.0995 102.779 22.3663 101.892 22.0575Z" fill="black"/>
</svg>
