<svg width="1280" height="167" viewBox="0 0 1280 167" fill="none" xmlns="http://www.w3.org/2000/svg">
<path d="M2 7H1V8V155.2V156.2H2H31H32V155.2V98.4H85.6H86.6V97.4V69.4V68.4H85.6H32V37H94H95V36V8V7H94H2Z" fill="black" stroke="black" stroke-width="2"/>
<path d="M188.213 101.963C192.577 99.3237 196.247 96.1779 199.212 92.5219C203.419 87.4961 206.413 81.9188 208.182 75.7955C210.072 69.7153 211.019 63.6266 211.019 57.5326C211.019 49.833 209.737 42.9082 207.149 36.7754C204.564 30.5148 200.75 25.197 195.711 20.8347C190.8 16.3338 184.682 12.9427 177.386 10.6438C170.08 8.2085 161.787 7 152.521 7H108H107V8V155V156H108H136.949H137.949V155V109.264H155.69L186.427 155.553L186.723 156H187.26H221H222.828L221.842 154.461L188.213 101.963ZM157.512 79.3016H137.949V36.962H157.712C162.672 36.962 166.465 37.8133 169.182 39.4193L169.19 39.4242L169.199 39.4289C172.136 41.09 174.255 43.1036 175.613 45.4506C177.024 47.8889 177.908 50.3029 178.286 52.6953L178.291 52.726L178.298 52.7563C178.822 55.1154 179.072 57.0342 179.072 58.5313C179.072 60.5381 178.696 62.7654 177.921 65.2207L177.916 65.2374L177.911 65.2542C177.284 67.5114 176.15 69.7282 174.486 71.9049L174.475 71.9201L174.464 71.9357C172.978 74.0419 170.853 75.806 168.046 77.2103C165.295 78.5859 161.8 79.3016 157.512 79.3016Z" fill="black" stroke="black" stroke-width="2"/>
<path d="M470.13 161.742L470.415 162H470.8H471.6H472.6V161V7.8V6.8H471.6H442.4H441.393L441.4 7.80676L441.984 94.2236L340.877 1.26385L340.59 1H340.2H339H338V2V155V156H339H368.4H369.407L369.4 154.993L368.835 70.2501L470.13 161.742Z" fill="black" stroke="black" stroke-width="2"/>
<path d="M518.444 60.4366L518.449 60.3829V60.3288V8V7H517.449H488H487V8V155V156H488H517.449H518.449V155V99.8906L524.539 93.8197L569.328 155.587L569.628 156H570.138H607H609.006L607.799 154.398L547.199 73.9756L607.534 8.67865L609.085 7H606.8H569.136H568.687L568.389 7.33588L520.308 61.4622L520.288 61.4842L520.27 61.5074L518.018 64.3655L518.444 60.4366Z" fill="black" stroke="black" stroke-width="2"/>
<path d="M992 7H991V8V155V156H992H1021H1022V155V8V7H1021H992Z" fill="black" stroke="black" stroke-width="2"/>
<path d="M1131 7H1130.31L1130.07 7.64469L1099.43 88.2403L1066.73 7.62409L1066.47 7H1065.8H1031H1029.47L1030.08 8.39994L1097.28 162.4L1098.2 164.5L1099.12 162.4L1166.32 8.39994L1166.93 7H1165.4H1131Z" fill="black" stroke="black" stroke-width="2"/>
<path d="M1175 7H1174V8V155V156H1175H1278H1279V155V127.038V126.038H1278H1204.94V96.2812H1267.02H1268.02V95.2812V67.3193V66.3193H1267.02H1204.94V36.962H1275.21H1276.21V35.962V8V7H1275.21H1175Z" fill="black" stroke="black" stroke-width="2"/>
<path d="M274.4 1H273.744L273.483 1.60189L207.083 154.602L206.476 156H208H236.6H237.267L237.523 155.384L249.259 127.2H296.771L307.87 155.367L308.119 156H308.8H342.4H343.924L343.317 154.602L276.917 1.60189L276.656 1H276H274.4ZM260.252 100.8L273.67 68.576L286.368 100.8H260.252Z" fill="black" stroke="black" stroke-width="2"/>
<path d="M882.081 129.306L882 129.495V129.7V155V156H883H981H982V155V127.038V126.038H981H912.941V8V7H911.941H883H882V8V32.1012V32.3067L882.081 32.4954C888.451 47.3476 891.98 63.7106 891.98 80.9008C891.98 98.091 888.451 114.454 882.081 129.306Z" fill="black" stroke="black" stroke-width="2"/>
<path d="M706.498 67.5751C706.076 67.7346 705.655 67.8994 705.234 68.0695C698.874 70.5062 693.117 73.8247 687.968 78.0251C682.804 82.2379 678.653 87.2039 675.523 92.9197L675.518 92.9278L675.514 92.936C672.502 98.687 671 104.981 671 111.8C671 120.775 673.247 128.767 677.76 135.743C682.259 142.695 688.325 148.145 695.94 152.088C703.562 156.035 712.055 158 721.4 158C733.393 158 743.201 155.575 750.745 150.639C754.917 147.956 758.508 144.958 761.51 141.64L771.692 155.59L771.992 156H772.5H806.5H808.497L807.301 154.401L776.77 113.578L795.929 65.3693L796.474 64H795H768.6H767.915L767.668 64.6383L758.315 88.7423L732.832 54.4431C732.425 53.7652 731.7 52.5796 730.66 50.8898C729.612 49.0544 728.562 47.0865 727.511 44.9857C726.622 42.8176 726.2 40.8934 726.2 39.2C726.2 36.2258 727.124 33.5013 729 31C730.748 28.6689 733.659 27.4 738 27.4C741.341 27.4 744.808 28.6349 748.419 31.2137L748.425 31.2185L748.432 31.2232C752.221 33.8359 756.164 37.3805 760.261 41.8738L761.074 42.7651L761.799 41.8013L776.399 22.4013L776.86 21.7889L776.388 21.1847C772.022 15.5908 766.174 10.8398 758.873 6.919C751.506 2.96266 743.005 1 733.4 1C724.599 1 717.202 2.82803 711.271 6.55142C705.535 10.1029 701.205 14.6299 698.315 20.1352L698.315 20.1351L698.31 20.1437C695.578 25.4711 694.2 30.8932 694.2 36.4C694.2 40.6541 694.955 44.9003 696.458 49.1344L696.458 49.1344L696.461 49.1442C697.947 53.1979 699.707 56.9222 701.743 60.3145L701.747 60.3223L701.752 60.33C703.617 63.3137 705.2 65.7307 706.498 67.5751ZM716.394 90.5191L716.412 90.5114L716.43 90.5029C718.276 89.6239 720.212 89.0497 722.242 88.7797L745.385 119.923C744.588 121.105 743.683 122.236 742.67 123.316L742.659 123.329L742.647 123.341C740.889 125.352 738.613 127.003 735.796 128.285C733.164 129.411 729.714 130 725.4 130C721.273 130 717.489 129.163 714.034 127.499C710.586 125.839 707.862 123.555 705.835 120.649C703.952 117.628 703 114.155 703 110.2C703 107.398 703.507 104.731 704.521 102.191C705.669 99.6461 707.262 97.3523 709.307 95.3071C711.35 93.2646 713.71 91.6695 716.394 90.5191Z" fill="black" stroke="black" stroke-width="2"/>
</svg>
