<svg width="24" height="24" viewBox="0 0 24 24" fill="none" xmlns="http://www.w3.org/2000/svg">
    <path fill-rule="evenodd" clip-rule="evenodd" d="M12 2C12.5523 2 13 2.44772 13 3V18.5369L16.283 15.1601C16.668 14.7641 17.3011 14.7552 17.6971 15.1401C18.0931 15.5251 18.102 16.1582 17.717 16.5542L12.717 21.6971C12.5287 21.8907 12.2701 22 12 22C11.7299 22 11.4713 21.8907 11.283 21.6971L6.28301 16.5542C5.89802 16.1582 5.90694 15.5251 6.30292 15.1401C6.69891 14.7552 7.33201 14.7641 7.717 15.1601L11 18.5369V3C11 2.44772 11.4477 2 12 2Z" fill="#000"></path>
</svg>