<svg width="24" height="24" viewBox="0 0 24 24" fill="none" xmlns="http://www.w3.org/2000/svg">
    <path d="M18.5578 22.0014C18.823 22.0014 19.0773 21.896 19.2649 21.7085L21.7085 19.2648C21.8961 19.0773 22.0014 18.8229 22.0014 18.5577V15.7293C22.0014 14.8384 20.9243 14.3922 20.2943 15.0222L15.0222 20.2943C14.3923 20.9242 14.8384 22.0014 15.7293 22.0014H18.5578Z" fill="#000"></path>
    <path d="M7.24405 22.0014C7.50927 22.0014 7.76362 21.896 7.95116 21.7085L21.7085 7.95111C21.8961 7.76358 22.0014 7.50922 22.0014 7.24401V4.41558C22.0014 3.52467 20.9243 3.07851 20.2943 3.70847L3.70852 20.2943C3.07855 20.9242 3.52472 22.0014 4.41563 22.0014H7.24405Z" fill="#000"></path>
</svg>