<svg width="24" height="24" viewBox="0 0 24 24" fill="none" xmlns="http://www.w3.org/2000/svg">
    <path fill-rule="evenodd" clip-rule="evenodd" d="M4 5C4 4.44772 4.44772 4 5 4H12C12.5523 4 13 3.55228 13 3C13 2.44772 12.5523 2 12 2H5C3.34315 2 2 3.34315 2 5V19C2 20.6569 3.34315 22 5 22H19C20.6569 22 22 20.6569 22 19V12C22 11.4477 21.5523 11 21 11C20.4477 11 20 11.4477 20 12V19C20 19.5523 19.5523 20 19 20H5C4.44772 20 4 19.5523 4 19V5ZM16 2C15.4477 2 15 2.44772 15 3C15 3.55228 15.4477 4 16 4H18.5858L11.2929 11.2929C10.9024 11.6834 10.9024 12.3166 11.2929 12.7071C11.6834 13.0976 12.3166 13.0976 12.7071 12.7071L20 5.41421V8C20 8.55228 20.4477 9 21 9C21.5523 9 22 8.55228 22 8V3C22 2.44772 21.5523 2 21 2H16Z" fill="#000"></path>
</svg>