<svg width="24" height="24" viewBox="0 0 24 24" fill="none" xmlns="http://www.w3.org/2000/svg">
    <path fill-rule="evenodd" clip-rule="evenodd" d="M12 3C7.02944 3 3 7.02944 3 12C3 16.9706 7.02944 21 12 21C16.9706 21 21 16.9706 21 12C21 7.02944 16.9706 3 12 3ZM12 2C6.47715 2 2 6.47715 2 12C2 17.5228 6.47715 22 12 22C17.5228 22 22 17.5228 22 12C22 6.47715 17.5228 2 12 2ZM13 17C13 17.5523 12.5523 18 12 18C11.4477 18 11 17.5523 11 17L11 11C11 10.4477 11.4477 10 12 10C12.5523 10 13 10.4477 13 11L13 17ZM12 8C12.5523 8 13 7.55229 13 7C13 6.44772 12.5523 6 12 6C11.4477 6 11 6.44772 11 7C11 7.55229 11.4477 8 12 8Z" fill="#000"></path>
</svg>