<svg width="24" height="24" viewBox="0 0 24 24" fill="none" xmlns="http://www.w3.org/2000/svg">
<path fill-rule="evenodd" clip-rule="evenodd" d="M12 17C11.4477 17 11 16.5523 11 16L11 5.46313L7.71699 8.83993C7.33201 9.23592 6.69891 9.24484 6.30292 8.85985C5.90694 8.47487 5.89802 7.84176 6.283 7.44578L11.283 2.30292C11.4713 2.10926 11.7299 2 12 2C12.2701 2 12.5287 2.10926 12.717 2.30292L17.717 7.44578C18.102 7.84176 18.0931 8.47487 17.6971 8.85985C17.3011 9.24484 16.668 9.23592 16.283 8.83994L13 5.46313L13 16C13 16.5523 12.5523 17 12 17Z" fill="#000"></path>
<path d="M4 19C4 19.5523 4.44772 20 5 20H19C19.5523 20 20 19.5523 20 19V13C20 12.4477 20.4477 12 21 12C21.5523 12 22 12.4477 22 13V19C22 20.6569 20.6569 22 19 22H5C3.34315 22 2 20.6569 2 19V13C2 12.4477 2.44772 12 3 12C3.55228 12 4 12.4477 4 13V19Z" fill="#000"></path>
</svg>