<svg width="24" height="24" viewBox="0 0 24 24" fill="none" xmlns="http://www.w3.org/2000/svg">
    <path fill-rule="evenodd" clip-rule="evenodd" d="M12 21C16.9706 21 21 16.9706 21 12C21 7.02944 16.9706 3 12 3C7.02944 3 3 7.02944 3 12C3 16.9706 7.02944 21 12 21ZM12 22C17.5228 22 22 17.5228 22 12C22 6.47715 17.5228 2 12 2C6.47715 2 2 6.47715 2 12C2 17.5228 6.47715 22 12 22ZM11 7C11 6.44772 11.4477 6 12 6C12.5523 6 13 6.44772 13 7V13C13 13.5523 12.5523 14 12 14C11.4477 14 11 13.5523 11 13V7ZM12 16C11.4477 16 11 16.4477 11 17C11 17.5523 11.4477 18 12 18C12.5523 18 13 17.5523 13 17C13 16.4477 12.5523 16 12 16Z" fill="#000"></path>
</svg>